<svg width="14" height="14" viewBox="0 0 14 14" fill="none" xmlns="http://www.w3.org/2000/svg">
<g clip-path="url(#clip0_265_1180)">
<path d="M3.72526 0.43335C3.84717 0.43335 3.96409 0.481779 4.05029 0.567983C4.1365 0.654187 4.18493 0.771104 4.18493 0.893015V1.75259H9.12108V0.898925C9.12108 0.777014 9.16951 0.660097 9.25571 0.573893C9.34191 0.487689 9.45883 0.43926 9.58074 0.43926C9.70265 0.43926 9.81957 0.487689 9.90578 0.573893C9.99198 0.660097 10.0404 0.777014 10.0404 0.898925V1.75259H11.82C12.1682 1.75259 12.5021 1.89087 12.7484 2.13702C12.9947 2.38318 13.1331 2.71706 13.1333 3.06526V12.254C13.1331 12.6022 12.9947 12.9361 12.7484 13.1822C12.5021 13.4284 12.1682 13.5667 11.82 13.5667H1.31333C0.965127 13.5667 0.631176 13.4284 0.384898 13.1822C0.138619 12.9361 0.000174102 12.6022 0 12.254L0 3.06526C0.000174102 2.71706 0.138619 2.38318 0.384898 2.13702C0.631176 1.89087 0.965127 1.75259 1.31333 1.75259H3.2656V0.892358C3.26577 0.770561 3.31428 0.653812 3.40046 0.56775C3.48665 0.481688 3.60346 0.433349 3.72526 0.43335ZM0.919331 5.51725V12.254C0.919331 12.3057 0.929522 12.357 0.949322 12.4048C0.969123 12.4526 0.998145 12.496 1.03473 12.5326C1.07132 12.5692 1.11475 12.5982 1.16255 12.618C1.21036 12.6378 1.26159 12.648 1.31333 12.648H11.82C11.8717 12.648 11.9229 12.6378 11.9707 12.618C12.0185 12.5982 12.062 12.5692 12.0986 12.5326C12.1352 12.496 12.1642 12.4526 12.184 12.4048C12.2038 12.357 12.214 12.3057 12.214 12.254V5.52644L0.919331 5.51725ZM4.37799 10.0331V11.1271H3.28333V10.0331H4.37799ZM7.11365 10.0331V11.1271H6.01965V10.0331H7.11365ZM9.84998 10.0331V11.1271H8.75531V10.0331H9.84998ZM4.37799 7.42158V8.51558H3.28333V7.42158H4.37799ZM7.11365 7.42158V8.51558H6.01965V7.42158H7.11365ZM9.84998 7.42158V8.51558H8.75531V7.42158H9.84998ZM3.2656 2.67126H1.31333C1.26159 2.67126 1.21036 2.68146 1.16255 2.70126C1.11475 2.72106 1.07132 2.75008 1.03473 2.78666C0.998145 2.82325 0.969123 2.86668 0.949322 2.91449C0.929522 2.96229 0.919331 3.01352 0.919331 3.06526V4.59858L12.214 4.60777V3.06526C12.214 3.01352 12.2038 2.96229 12.184 2.91449C12.1642 2.86668 12.1352 2.82325 12.0986 2.78666C12.062 2.75008 12.0185 2.72106 11.9707 2.70126C11.9229 2.68146 11.8717 2.67126 11.82 2.67126H10.0404V3.28131C10.0404 3.40322 9.99198 3.52013 9.90578 3.60634C9.81957 3.69254 9.70265 3.74097 9.58074 3.74097C9.45883 3.74097 9.34191 3.69254 9.25571 3.60634C9.16951 3.52013 9.12108 3.40322 9.12108 3.28131V2.67126H4.18493V3.2754C4.18493 3.39731 4.1365 3.51422 4.05029 3.60043C3.96409 3.68663 3.84717 3.73506 3.72526 3.73506C3.60335 3.73506 3.48643 3.68663 3.40023 3.60043C3.31402 3.51422 3.2656 3.39731 3.2656 3.2754V2.67126Z" fill="#301D19"/>
</g>
<defs>
<clipPath id="clip0_265_1180">
<rect width="13.1333" height="13.1333" fill="white" transform="translate(0 0.43335)"/>
</clipPath>
</defs>
</svg>
