<svg width="14" height="21" viewBox="0 0 14 21" fill="none" xmlns="http://www.w3.org/2000/svg">
<g clip-path="url(#clip0_188_511)">
<path d="M7 3.375C3.89453 3.375 1.375 5.77305 1.375 8.72656C1.375 12.125 5.125 17.5105 6.50195 19.3707C6.55911 19.4492 6.63402 19.5131 6.72058 19.5572C6.80713 19.6012 6.90288 19.6242 7 19.6242C7.09712 19.6242 7.19287 19.6012 7.27942 19.5572C7.36598 19.5131 7.44089 19.4492 7.49805 19.3707C8.875 17.5113 12.625 12.1277 12.625 8.72656C12.625 5.77305 10.1055 3.375 7 3.375Z" stroke="#301D19" stroke-width="1.25" stroke-linecap="round" stroke-linejoin="round"/>
<path d="M7 10.875C8.03553 10.875 8.875 10.0355 8.875 9C8.875 7.96447 8.03553 7.125 7 7.125C5.96447 7.125 5.125 7.96447 5.125 9C5.125 10.0355 5.96447 10.875 7 10.875Z" stroke="#301D19" stroke-width="1.25" stroke-linecap="round" stroke-linejoin="round"/>
</g>
<defs>
<clipPath id="clip0_188_511">
<rect width="14" height="20" fill="white" transform="translate(0 0.5)"/>
</clipPath>
</defs>
</svg>
