<svg width="280" height="280" viewBox="0 0 280 280" fill="none" xmlns="http://www.w3.org/2000/svg">
<path d="M139.8 279.146C120.93 279.146 102.621 275.457 85.3825 268.177C68.7354 261.148 53.7842 251.084 40.9461 238.267C28.108 225.45 18.028 210.526 10.9867 193.903C3.69511 176.692 0 158.413 0 139.573C0 120.734 3.69511 102.455 10.9867 85.2438C18.028 68.6238 28.108 53.6968 40.9461 40.8796C53.7842 28.0623 68.7354 17.9987 85.3825 10.9689C102.621 3.68911 120.926 0 139.8 0C158.674 0 176.979 3.68911 194.218 10.9689C210.865 17.9987 225.816 28.0623 238.654 40.8796C251.493 53.6968 261.573 68.62 268.614 85.2438C275.905 102.455 279.601 120.734 279.601 139.573C279.601 158.413 275.905 176.692 268.614 193.903C261.573 210.523 251.493 225.45 238.654 238.267C225.816 251.084 210.865 261.148 194.218 268.177C176.979 275.457 158.674 279.146 139.8 279.146ZM139.8 8.34031C67.3204 8.34031 8.35006 67.211 8.35006 139.577C8.35006 211.943 67.3166 270.814 139.8 270.814C212.284 270.814 271.25 211.943 271.25 139.577C271.25 67.211 212.284 8.34031 139.8 8.34031Z" fill="black"/>
<path d="M139.803 19.6465C73.2675 19.6465 19.6768 73.4228 19.6768 139.577C19.6768 205.731 73.7683 259.508 139.803 259.508C205.837 259.508 259.928 205.735 259.928 139.577C259.928 73.4191 205.837 19.6465 139.803 19.6465ZM248.008 111.545H151.84L188.879 90.1944C195.07 95.4971 201.527 98.2658 208.102 98.4135C214.039 98.5498 218.205 96.4705 221.866 94.6373C224.46 93.3381 226.915 92.1109 229.908 91.6829C233.6 91.1564 237.587 91.948 241.844 94.035C244.363 99.6444 246.434 105.496 248.008 111.545ZM139.727 183.169C118.318 183.169 100.435 167.806 96.5536 147.546C109.528 154.133 120.348 153.379 120.815 153.368C128.304 153.175 133.638 151.167 138.797 149.22C143.213 147.558 147.777 145.842 153.957 145.194C162.929 144.255 172.459 145.937 182.312 150.179C177.448 169.124 160.198 183.169 139.727 183.169ZM153.286 138.789C146.279 139.524 141.32 141.391 136.521 143.198C131.65 145.031 127.048 146.766 120.648 146.929C112.408 147.145 104.046 144.728 95.7759 139.755C95.7759 139.573 95.7683 117.984 95.7683 117.984H183.685V139.282C183.685 140.766 183.609 142.232 183.465 143.679C173.074 139.429 162.941 137.782 153.286 138.789ZM226.221 68.8778C230.53 74.1236 234.374 79.7671 237.686 85.7402C234.711 85.0546 231.809 84.9069 228.994 85.3083C224.961 85.8841 221.919 87.4066 218.978 88.88C215.553 90.5958 212.601 92.0768 208.25 91.9784C203.849 91.8761 199.41 90.1641 195.009 86.8689L226.221 68.8778ZM193.496 41.7244L152.182 86.0507C150.971 85.1985 149.712 84.5092 148.346 83.9297L160.915 29.9866C172.505 32.2061 183.465 36.2172 193.496 41.7244ZM139.803 27.9792C144.795 27.9792 149.712 28.3162 154.534 28.9526L142.102 82.3086C140.774 82.1078 138.752 82.0851 137.428 82.3162L124.999 28.9601C129.844 28.32 134.783 27.9792 139.803 27.9792ZM118.618 30.0017L131.191 83.9599C129.901 84.5091 128.66 85.1796 127.503 85.975L86.2118 41.6676C96.1894 36.2021 107.093 32.2175 118.618 30.0017ZM80.5174 45.0121L122.776 90.3572C122.283 90.9708 121.831 91.6148 121.41 92.2776L126.999 95.444C129.753 91.3117 134.457 88.5885 139.803 88.5885C145.148 88.5885 149.803 91.2852 152.565 95.3834L158.119 92.1942C157.736 91.5957 157.326 91.0163 156.886 90.4595L199.186 45.0726C207.521 50.3109 215.116 56.6172 221.778 63.7947L139.803 111.049L57.8269 63.7947C64.5153 56.5907 72.1445 50.2617 80.5174 45.0121ZM53.3844 68.8815L84.5919 86.8689C80.1911 90.1641 75.7524 91.8761 71.3517 91.9784C66.9964 92.073 64.0486 90.5958 60.6267 88.88C57.6827 87.4066 54.6401 85.8841 50.6073 85.3083C49.1695 85.1038 45.9751 84.8424 41.912 85.7515C45.224 79.7746 49.0708 74.1274 53.3844 68.8815ZM37.7654 94.0274C42.0182 91.9442 46.0017 91.1564 49.693 91.6829C52.6901 92.1109 55.1409 93.3381 57.7358 94.6373C61.4006 96.4705 65.551 98.5498 71.4996 98.4135C78.0742 98.2658 84.535 95.4971 90.7264 90.1944L127.765 111.545H31.5968C33.1712 105.492 35.2426 99.6406 37.7654 94.0274ZM28.023 139.577C28.023 132.191 28.7476 124.972 30.1248 117.984H69.7203L28.0496 142.001C28.0344 141.194 28.023 140.388 28.023 139.577ZM243.775 180.559L197.009 133.869V142.975L241.016 186.911C235.99 197.584 229.316 207.337 221.327 215.844L192.202 165.477C191.117 167.693 189.861 169.833 188.454 171.874L216.619 220.575C206.763 229.896 195.214 237.449 182.49 242.717C183.753 240.566 184.41 238.286 184.41 235.926C184.41 235.002 184.307 234.093 184.11 233.199L184.102 233.169C184.015 232.775 183.909 232.381 183.78 231.991L171.659 187.566C169.785 188.702 167.835 189.744 165.816 190.679L174.174 221.283C173.009 220.583 171.757 219.912 170.411 219.283C165.441 216.954 159.507 215.265 153.054 214.28V220.795C166.757 223.071 176.041 228.665 177.695 234.18L177.729 234.313C177.881 234.854 177.96 235.392 177.96 235.926C177.96 240.714 171.826 245.842 161.727 249.016C161.727 249.016 161.724 249.017 161.719 249.02C155.66 250.921 148.175 252.122 139.727 252.122C131.278 252.122 123.592 250.887 117.491 248.94C107.533 245.763 101.497 240.676 101.497 235.926C101.497 229.889 111.243 223.313 126.399 220.795V214.28C119.95 215.265 114.013 216.954 109.043 219.283C107.719 219.905 106.482 220.564 105.332 221.253L113.77 190.74C111.751 189.812 109.798 188.774 107.924 187.642L95.461 232.711C95.1879 233.763 95.0437 234.835 95.0437 235.926C95.0437 238.256 95.6811 240.509 96.914 242.634C84.2656 237.369 72.7857 229.847 62.9826 220.575L91.0792 171.991C89.668 169.954 88.4084 167.825 87.3158 165.613L58.2707 215.841C50.2811 207.334 43.6116 197.581 38.5811 186.911L82.4408 143.122V134.017L35.8268 180.555C31.9192 170.715 29.3812 160.189 28.4366 149.217L82.6191 117.984H89.3151V139.282C89.3151 165.95 110.2 187.835 136.498 189.502V232.495C136.498 233.248 137.944 233.858 139.723 233.858C141.502 233.858 142.948 233.248 142.948 232.495V189.502C169.246 187.835 190.131 165.95 190.131 139.282V117.984H196.982L251.161 149.213C250.216 160.189 247.678 170.715 243.771 180.559H243.775ZM209.889 117.984H249.48C250.857 124.972 251.582 132.191 251.582 139.577C251.582 140.388 251.571 141.194 251.556 142.001L209.889 117.984Z" fill="black"/>
</svg>
