<svg width="348" height="286" viewBox="0 0 348 286" fill="none" xmlns="http://www.w3.org/2000/svg">
<path d="M174 126.58C165.477 126.58 157.207 124.914 149.421 121.626C141.902 118.451 135.149 113.906 129.351 108.117C123.552 102.327 119 95.5872 115.819 88.0788C112.526 80.3053 110.857 72.0493 110.857 63.5402C110.857 55.031 112.526 46.7751 115.819 39.0016C119 31.4949 123.552 24.7529 129.351 18.9638C135.149 13.1747 141.902 8.62935 149.421 5.45425C157.207 2.16624 165.475 0.5 174 0.5C182.524 0.5 190.792 2.16624 198.578 5.45425C206.097 8.62935 212.85 13.1747 218.649 18.9638C224.447 24.7529 229 31.4932 232.18 39.0016C235.473 46.7751 237.142 55.031 237.142 63.5402C237.142 72.0493 235.473 80.3053 232.18 88.0788C229 95.5855 224.447 102.327 218.649 108.117C212.85 113.906 206.097 118.451 198.578 121.626C190.792 124.914 182.524 126.58 174 126.58ZM174 4.26702C141.263 4.26702 114.628 30.8568 114.628 63.5419C114.628 96.227 141.261 122.817 174 122.817C206.738 122.817 233.371 96.227 233.371 63.5419C233.371 30.8568 206.738 4.26702 174 4.26702Z" fill="#F4EEB8"/>
<path d="M0 163.515H3.40817V162.227C3.40817 158.484 6.1395 153.48 12.2876 153.311H21.2184C24.3918 153.389 26.1567 155.848 26.2784 158.311V215.266C26.2784 217.434 24.7054 220.287 21.167 220.369L19.8253 220.267V223.772H43.6773V220.267L42.3356 220.369C39.2016 220.296 37.2242 217.846 37.2242 215.266V158.414C37.2242 155.295 39.7465 153.374 42.2842 153.311H51.215C56.6914 153.461 60.0944 157.738 60.0944 162.227V163.515H63.5009V149.908H0V163.515Z" fill="#F4EEB8"/>
<path d="M69.126 153.411L70.4677 153.257C72.6455 153.363 75.358 154.84 75.5276 158.258V215.317C75.5276 217.524 73.9649 220.338 70.4677 220.42L69.126 220.318V223.772H128.705V210.267H125.35V211.555C125.35 215.293 122.623 220.253 116.47 220.42H91.4821C88.3173 220.347 86.4221 217.885 86.4221 215.317V189.287C86.4221 188.977 86.5935 188.789 86.9379 188.721H107.796C113.209 188.871 116.624 193.126 116.624 197.586V198.874H119.979V175.163H116.624V176.451C116.624 180.172 113.895 185.114 107.796 185.368H86.991C86.6123 185.299 86.4238 185.109 86.4238 184.801V158.36C86.4238 155.478 88.6463 153.394 91.4838 153.257H116.472C122.031 153.485 125.351 157.76 125.351 162.174V163.462H128.706V149.906H69.1277V153.411H69.126Z" fill="#F4EEB8"/>
<path d="M201.608 176.451C201.608 158.65 185.976 149.906 175.794 149.906H135.42V153.411L136.815 153.307C140.266 153.307 141.873 156.26 141.873 158.41V215.316C141.873 217.803 139.918 220.419 136.815 220.419L135.42 220.314V223.768H159.272V220.314L157.931 220.419C154.473 220.419 152.819 217.423 152.819 215.316V191.244C154.024 192.994 156.459 195.856 159.015 197.791C159.015 197.791 159.461 198.083 159.634 198.254C159.634 198.254 178.289 216.847 179.459 219.182C179.528 219.32 179.768 220.367 178.736 220.367L177.343 220.263L177.394 223.768H200.472V220.263L199.077 220.419C193.354 220.419 186.946 213.923 186.946 213.923L176.31 203.048C191.438 202.165 201.608 189.721 201.608 176.451ZM175.487 199.69C175.268 199.69 158.229 200.03 152.819 183.513V158.41C152.819 154.977 155.801 153.307 157.931 153.307L174.888 153.369C187.708 153.369 198.102 163.746 198.102 176.545C198.102 189.345 187.408 199.69 175.487 199.69Z" fill="#F4EEB8"/>
<path d="M346.605 220.227C343.759 220.227 342.369 217.858 341.015 214.749L314.17 149.908H297.443V153.413L298.836 153.309C303.904 153.309 305.652 157.324 303.844 161.712L283.555 210.678C283.555 210.678 280.921 217.184 275.386 219.919C272.444 221.373 268.976 221.228 266.08 219.68C262.189 217.601 258.998 213.925 258.998 213.923L248.361 203.048C263.489 202.163 273.661 189.721 273.661 176.451C273.661 158.65 258.028 149.906 247.847 149.906H207.473V153.411L208.868 153.307C212.319 153.307 213.926 156.258 213.926 158.41V215.316C213.926 217.801 211.971 220.419 208.868 220.419L207.473 220.314V223.768H231.325V220.314L229.983 220.419C226.526 220.419 224.872 217.421 224.872 215.316V191.244C226.077 192.992 228.512 195.856 231.068 197.791C231.068 197.791 231.512 198.083 231.687 198.254C231.687 198.254 250.34 216.845 251.51 219.182C251.581 219.319 251.82 220.367 250.789 220.367L249.396 220.263L249.447 223.768H292.485L292.537 220.366H291.195C287.725 220.366 285.876 218.349 285.876 215.47C285.876 213.244 287.22 210.52 287.22 210.52C289.766 205.47 293.603 201.474 298.733 198.537C303.861 195.599 309.54 194.13 315.77 194.13C317.732 194.13 319.641 194.284 321.5 194.594L330.174 215.623C330.174 215.623 330.69 216.758 330.69 217.789C330.69 220.34 328.303 220.366 327.902 220.366H326.612V223.768H348V220.212L346.605 220.225V220.227ZM224.872 183.515V158.412C224.872 154.978 227.852 153.309 229.983 153.309C229.983 153.309 246.939 153.37 246.94 153.37C259.759 153.37 270.155 163.747 270.155 176.547C270.155 189.347 259.461 199.692 247.54 199.692C247.319 199.692 230.28 200.032 224.872 183.515ZM315.047 190.729C312.602 190.765 310.21 191.039 307.871 191.554C307.527 191.624 307.216 191.692 306.941 191.761C301.056 193.17 295.996 195.764 291.762 199.544L306.838 163.257L307.045 162.742C307.251 162.295 307.475 161.849 307.715 161.402L319.951 190.729H315.047Z" fill="#F4EEB8"/>
<path d="M333.617 151.196H330.894V149.908H337.863V151.196H335.142V158.107H333.617V151.196Z" fill="#F4EEB8"/>
<path d="M346.557 158.105L346.545 152.67L343.847 157.168H343.166L340.467 152.741V158.105H339.013V149.906H340.269L343.529 155.341L346.732 149.906H347.988L348 158.105H346.557Z" fill="#F4EEB8"/>
<path d="M96.0983 247.941L91.6603 261.308H89.0198L85.711 251.415L82.3439 261.308H79.6846L75.2466 247.941H77.8288L81.1565 258.101L84.6195 247.941H86.9156L90.3015 258.157L93.725 247.941H96.0965H96.0983Z" fill="#F4EEB8"/>
<path d="M105.777 247.941H108.263V261.308H105.777V247.941Z" fill="#F4EEB8"/>
<path d="M131.429 247.941V261.308H129.382L121.998 252.257V261.308H119.531V247.941H121.578L128.962 256.992V247.941H131.429Z" fill="#F4EEB8"/>
<path d="M152.72 259.228V261.31H142.677V247.943H152.451V250.024H145.163V253.501H151.628V255.543H145.163V259.23H152.718L152.72 259.228Z" fill="#F4EEB8"/>
<path d="M178.791 250.041H174.353V247.941H185.715V250.041H181.277V261.308H178.791V250.041Z" fill="#F4EEB8"/>
<path d="M194.095 254.624C194.095 250.671 197.155 247.749 201.307 247.749C205.459 247.749 208.517 250.652 208.517 254.624C208.517 258.597 205.457 261.5 201.307 261.5C197.157 261.5 194.095 258.578 194.095 254.624ZM206.012 254.624C206.012 251.894 204.004 249.927 201.307 249.927C198.61 249.927 196.602 251.894 196.602 254.624C196.602 257.355 198.61 259.322 201.307 259.322C204.004 259.322 206.012 257.355 206.012 254.624Z" fill="#F4EEB8"/>
<path d="M218.695 255.485V247.941H221.181V255.389C221.181 258.14 222.425 259.324 224.586 259.324C226.747 259.324 227.972 258.14 227.972 255.389V247.941H230.42V255.485C230.42 259.38 228.22 261.5 224.567 261.5C220.914 261.5 218.695 259.38 218.695 255.485Z" fill="#F4EEB8"/>
<path d="M250.313 261.31L247.578 257.396C247.407 257.415 247.234 257.415 247.063 257.415H244.04V261.31H241.554V247.943H247.063C250.582 247.943 252.763 249.737 252.763 252.698C252.763 254.722 251.73 256.212 249.914 256.919L252.993 261.312H250.315L250.313 261.31ZM246.948 250.042H244.04V255.37H246.948C249.129 255.37 250.257 254.378 250.257 252.697C250.257 251.015 249.127 250.042 246.948 250.042Z" fill="#F4EEB8"/>
<path d="M262.059 259.895L262.919 257.967C263.99 258.826 265.693 259.439 267.338 259.439C269.424 259.439 270.303 258.694 270.303 257.7C270.303 254.816 262.345 256.708 262.345 251.742C262.345 249.585 264.067 247.751 267.739 247.751C269.346 247.751 271.029 248.172 272.196 248.935L271.411 250.863C270.207 250.156 268.885 249.812 267.719 249.812C265.652 249.812 264.811 250.615 264.811 251.627C264.811 254.472 272.749 252.62 272.749 257.528C272.749 259.666 271.009 261.5 267.336 261.5C265.251 261.5 263.166 260.85 262.057 259.895H262.059Z" fill="#F4EEB8"/>
<path d="M174.001 9.37341C143.949 9.37341 119.744 33.6623 119.744 63.5418C119.744 93.4213 144.175 117.71 174.001 117.71C203.826 117.71 228.257 93.423 228.257 63.5418C228.257 33.6606 203.826 9.37341 174.001 9.37341ZM222.873 50.8807H179.438L196.167 41.2374C198.963 43.6324 201.879 44.8829 204.849 44.9496C207.531 45.0112 209.412 44.072 211.066 43.244C212.238 42.6573 213.346 42.103 214.698 41.9097C216.365 41.6719 218.166 42.0294 220.089 42.972C221.227 45.5056 222.162 48.1487 222.873 50.8807ZM173.966 83.2305C164.297 83.2305 156.22 76.2918 154.467 67.1411C160.327 70.1161 165.214 69.7756 165.425 69.7705C168.807 69.6833 171.216 68.7766 173.547 67.8973C175.541 67.1463 177.602 66.3713 180.394 66.0788C184.446 65.6545 188.751 66.4141 193.2 68.3301C191.004 76.8871 183.212 83.2305 173.966 83.2305ZM180.09 63.1859C176.926 63.5178 174.686 64.3612 172.518 65.1772C170.318 66.0052 168.24 66.7887 165.349 66.8623C161.627 66.9598 157.851 65.8684 154.115 63.6222C154.115 63.5401 154.112 53.7889 154.112 53.7889H193.821V63.4083C193.821 64.0789 193.787 64.741 193.721 65.3945C189.028 63.4751 184.451 62.7309 180.09 63.1859ZM213.033 31.6094C214.979 33.9788 216.715 36.5277 218.211 39.2256C216.867 38.9159 215.557 38.8492 214.285 39.0305C212.464 39.2905 211.09 39.9782 209.762 40.6437C208.214 41.4187 206.881 42.0876 204.916 42.0431C202.928 41.9969 200.923 41.2237 198.936 39.7353L213.033 31.6094ZM198.252 19.3452L179.592 39.3658C179.045 38.9809 178.476 38.6696 177.859 38.4078L183.536 14.0437C188.771 15.0461 193.721 16.8578 198.252 19.3452ZM174.001 13.137C176.256 13.137 178.476 13.2892 180.654 13.5766L175.039 37.6756C174.439 37.585 173.526 37.5747 172.928 37.6791L167.315 13.5801C169.503 13.2909 171.734 13.137 174.001 13.137ZM164.432 14.0505L170.111 38.4215C169.528 38.6695 168.968 38.9723 168.445 39.3316L149.796 19.3195C154.302 16.851 159.227 15.0513 164.432 14.0505ZM147.224 20.8301L166.31 41.3109C166.088 41.5881 165.884 41.8789 165.694 42.1783L168.218 43.6084C169.462 41.742 171.586 40.512 174.001 40.512C176.415 40.512 178.517 41.73 179.765 43.5811L182.273 42.1406C182.1 41.8703 181.915 41.6086 181.717 41.3571L200.822 20.8575C204.587 23.2234 208.017 26.0718 211.026 29.3136L174.001 50.6566L136.975 29.3136C139.996 26.0598 143.442 23.2012 147.224 20.8301ZM134.969 31.6111L149.064 39.7353C147.076 41.2237 145.071 41.9969 143.084 42.0431C141.117 42.0859 139.785 41.4187 138.24 40.6437C136.91 39.9782 135.536 39.2905 133.714 39.0305C133.065 38.9381 131.622 38.8201 129.787 39.2307C131.283 36.5311 133.02 33.9805 134.969 31.6111ZM127.914 42.9686C129.835 42.0277 131.634 41.6719 133.301 41.9097C134.655 42.103 135.762 42.6573 136.934 43.244C138.589 44.072 140.464 45.0112 143.151 44.9496C146.12 44.8829 149.038 43.6324 151.835 41.2374L168.564 50.8807H125.128C125.839 48.147 126.775 45.5039 127.914 42.9686ZM123.514 63.5418C123.514 60.2059 123.841 56.9452 124.463 53.7889H142.347L123.526 64.6366C123.519 64.2722 123.514 63.9079 123.514 63.5418ZM220.961 82.0518L199.839 60.9637V65.0763L219.715 84.9207C217.445 89.7415 214.431 94.1467 210.822 97.9889L197.668 75.2397C197.178 76.2405 196.61 77.207 195.975 78.1291L208.696 100.126C204.244 104.336 199.028 107.747 193.281 110.127C193.852 109.155 194.148 108.125 194.148 107.059C194.148 106.642 194.102 106.231 194.013 105.827L194.009 105.814C193.97 105.636 193.922 105.458 193.864 105.282L188.389 85.2166C187.542 85.7299 186.662 86.2003 185.75 86.6229L189.525 100.446C188.999 100.129 188.434 99.8262 187.825 99.5423C185.581 98.4902 182.901 97.7272 179.986 97.2824V100.225C186.175 101.253 190.368 103.78 191.115 106.271L191.131 106.33C191.199 106.575 191.235 106.818 191.235 107.059C191.235 109.222 188.464 111.538 183.903 112.971C183.903 112.971 183.902 112.972 183.9 112.973C181.163 113.832 177.782 114.374 173.966 114.374C170.15 114.374 166.679 113.817 163.924 112.937C159.426 111.502 156.699 109.204 156.699 107.059C156.699 104.332 161.101 101.362 167.947 100.225V97.2824C165.034 97.7272 162.352 98.4902 160.108 99.5423C159.51 99.8228 158.951 100.12 158.432 100.432L162.243 86.6503C161.331 86.2311 160.449 85.7624 159.602 85.2509L153.973 105.607C153.85 106.082 153.785 106.567 153.785 107.059C153.785 108.111 154.073 109.129 154.629 110.089C148.917 107.711 143.732 104.313 139.304 100.126L151.994 78.1822C151.357 77.2618 150.788 76.3004 150.294 75.3013L137.176 97.9872C133.567 94.1449 130.555 89.7398 128.283 84.9207L148.092 65.143V61.0304L127.039 82.0501C125.274 77.6056 124.127 72.8515 123.701 67.8956L148.173 53.7889H151.197V63.4083C151.197 75.4535 160.63 85.3381 172.508 86.0908V105.509C172.508 105.85 173.161 106.125 173.965 106.125C174.768 106.125 175.421 105.85 175.421 105.509V86.0908C187.299 85.3381 196.732 75.4535 196.732 63.4083V53.7889H199.827L224.297 67.8938C223.871 72.8515 222.724 77.6056 220.959 82.0518H220.961ZM205.656 53.7889H223.538C224.16 56.9452 224.487 60.2059 224.487 63.5418C224.487 63.9079 224.482 64.2722 224.475 64.6366L205.656 53.7889Z" fill="#F4EEB8"/>
</svg>
