<svg width="26" height="26" viewBox="0 0 26 26" fill="none" xmlns="http://www.w3.org/2000/svg">
<path d="M8.44984 2.16663H17.5498C21.0165 2.16663 23.8332 4.98329 23.8332 8.44996V17.55C23.8332 19.2164 23.1712 20.8146 21.9928 21.9929C20.8145 23.1713 19.2163 23.8333 17.5498 23.8333H8.44984C4.98317 23.8333 2.1665 21.0166 2.1665 17.55V8.44996C2.1665 6.78352 2.8285 5.18533 4.00685 4.00697C5.1852 2.82862 6.78339 2.16663 8.44984 2.16663ZM8.23317 4.33329C7.19883 4.33329 6.20685 4.74418 5.47545 5.47558C4.74406 6.20697 4.33317 7.19895 4.33317 8.23329V17.7666C4.33317 19.9225 6.07734 21.6666 8.23317 21.6666H17.7665C18.8008 21.6666 19.7928 21.2557 20.5242 20.5243C21.2556 19.7929 21.6665 18.801 21.6665 17.7666V8.23329C21.6665 6.07746 19.9223 4.33329 17.7665 4.33329H8.23317ZM18.6873 5.95829C19.0465 5.95829 19.3909 6.10096 19.6449 6.35492C19.8988 6.60887 20.0415 6.95331 20.0415 7.31246C20.0415 7.67161 19.8988 8.01604 19.6449 8.27C19.3909 8.52395 19.0465 8.66663 18.6873 8.66663C18.3282 8.66663 17.9838 8.52395 17.7298 8.27C17.4758 8.01604 17.3332 7.67161 17.3332 7.31246C17.3332 6.95331 17.4758 6.60887 17.7298 6.35492C17.9838 6.10096 18.3282 5.95829 18.6873 5.95829ZM12.9998 7.58329C14.4364 7.58329 15.8142 8.15398 16.83 9.1698C17.8458 10.1856 18.4165 11.5634 18.4165 13C18.4165 14.4365 17.8458 15.8143 16.83 16.8301C15.8142 17.8459 14.4364 18.4166 12.9998 18.4166C11.5632 18.4166 10.1855 17.8459 9.16967 16.8301C8.15385 15.8143 7.58317 14.4365 7.58317 13C7.58317 11.5634 8.15385 10.1856 9.16967 9.1698C10.1855 8.15398 11.5632 7.58329 12.9998 7.58329ZM12.9998 9.74996C12.1379 9.74996 11.3112 10.0924 10.7017 10.7019C10.0922 11.3114 9.74984 12.138 9.74984 13C9.74984 13.8619 10.0922 14.6886 10.7017 15.2981C11.3112 15.9075 12.1379 16.25 12.9998 16.25C13.8618 16.25 14.6884 15.9075 15.2979 15.2981C15.9074 14.6886 16.2498 13.8619 16.2498 13C16.2498 12.138 15.9074 11.3114 15.2979 10.7019C14.6884 10.0924 13.8618 9.74996 12.9998 9.74996Z" fill="#F4EEB8"/>
</svg>
