<svg width="2596" height="814" viewBox="0 0 2596 814" fill="none" xmlns="http://www.w3.org/2000/svg">
<path d="M407.54 813.58C352.63 813.58 299.35 802.82 249.19 781.61C200.75 761.12 157.24 731.79 119.89 694.44C82.5301 657.08 53.2102 613.58 32.7202 565.14C11.5002 514.98 0.75 461.71 0.75 406.79C0.75 351.87 11.5102 298.6 32.7202 248.44C53.2102 200 82.5401 156.5 119.89 119.14C157.25 81.78 200.75 52.46 249.19 31.97C299.35 10.75 352.62 0 407.54 0C462.46 0 515.73 10.76 565.89 31.97C614.33 52.46 657.84 81.79 695.19 119.14C732.55 156.5 761.87 200 782.36 248.44C803.58 298.6 814.33 351.87 814.33 406.79C814.33 461.71 803.57 514.98 782.36 565.14C761.87 613.58 732.54 657.08 695.19 694.44C657.83 731.8 614.33 761.12 565.89 781.61C515.73 802.83 462.46 813.58 407.54 813.58ZM407.54 24.28C196.63 24.28 25.0298 195.87 25.0298 406.79C25.0298 617.71 196.62 789.3 407.54 789.3C618.46 789.3 790.05 617.71 790.05 406.79C790.05 195.87 618.46 24.28 407.54 24.28Z" fill="#301D19"/>
<path d="M892.88 229.84H909.55V223.52C909.55 205.18 922.91 180.65 953 179.82H996.7C1012.23 180.2 1020.86 192.26 1021.46 204.32V483.45C1021.46 494.07 1013.77 508.05 996.45 508.46L989.88 507.95V525.13H1106.58V507.95L1100.01 508.46C1084.68 508.1 1075 496.09 1075 483.45V204.82C1075 189.54 1087.34 180.12 1099.75 179.81H1143.45C1170.24 180.55 1186.9 201.51 1186.9 223.51V229.83H1203.57V163.14H892.86V229.83L892.88 229.84Z" fill="#301D19"/>
<path d="M1231.1 180.33L1237.67 179.57C1248.32 180.09 1261.6 187.33 1262.43 204.07V483.71C1262.43 494.52 1254.79 508.32 1237.67 508.72L1231.1 508.21V525.13H1522.61V458.95H1506.19V465.27C1506.19 483.59 1492.85 507.9 1462.74 508.72H1340.48C1325 508.36 1315.72 496.3 1315.72 483.71V356.14C1315.72 354.62 1316.56 353.7 1318.25 353.36H1420.3C1446.79 354.1 1463.5 374.95 1463.5 396.81V403.13H1479.92V286.93H1463.5V293.25C1463.5 311.48 1450.14 335.71 1420.3 336.95H1318.5C1316.64 336.61 1315.72 335.69 1315.72 334.17V204.58C1315.72 190.45 1326.6 180.24 1340.48 179.57H1462.74C1489.93 180.69 1506.19 201.63 1506.19 223.27V229.59H1522.61V163.15H1231.1V180.33Z" fill="#301D19"/>
<path d="M1879.32 293.25C1879.32 206.01 1802.84 163.16 1753.02 163.16H1555.48V180.34L1562.3 179.83C1579.19 179.83 1587.05 194.3 1587.05 204.84V483.72C1587.05 495.91 1577.49 508.73 1562.3 508.73L1555.48 508.22V525.15H1672.19V508.22L1665.63 508.73C1648.71 508.73 1640.62 494.05 1640.62 483.72V365.75C1646.52 374.32 1658.43 388.36 1670.94 397.84C1670.94 397.84 1673.12 399.27 1673.97 400.11C1673.97 400.11 1765.24 491.22 1770.97 502.67C1771.31 503.35 1772.48 508.48 1767.43 508.48L1760.61 507.97L1760.86 525.15H1873.78V507.97L1866.96 508.73C1838.96 508.73 1807.6 476.9 1807.6 476.9L1755.56 423.6C1829.58 419.27 1879.34 358.29 1879.34 293.25H1879.32ZM1751.51 407.13C1750.44 407.13 1667.07 408.8 1640.6 327.85V204.82C1640.6 188 1655.19 179.81 1665.61 179.81L1748.58 180.11C1811.31 180.11 1862.17 230.97 1862.17 293.7C1862.17 356.43 1809.85 407.13 1751.52 407.13H1751.51Z" fill="#301D19"/>
<path d="M2588.77 507.78C2574.84 507.78 2568.05 496.17 2561.42 480.93L2430.07 163.15H2348.23V180.33L2355.05 179.82C2379.85 179.82 2388.4 199.5 2379.56 221L2280.29 460.97C2280.29 460.97 2267.4 492.86 2240.33 506.26C2225.93 513.39 2208.96 512.67 2194.8 505.09C2175.76 494.9 2160.15 476.89 2160.15 476.88L2108.1 423.58C2182.12 419.25 2231.89 358.27 2231.89 293.23C2231.89 205.99 2155.4 163.14 2105.58 163.14H1908.04V180.32L1914.86 179.81C1931.75 179.81 1939.61 194.27 1939.61 204.82V483.7C1939.61 495.88 1930.04 508.71 1914.86 508.71L1908.04 508.2V525.13H2024.75V508.2L2018.19 508.71C2001.27 508.71 1993.18 494.02 1993.18 483.7V365.73C1999.07 374.3 2010.99 388.33 2023.5 397.82C2023.5 397.82 2025.67 399.25 2026.53 400.09C2026.53 400.09 2117.8 491.2 2123.52 502.65C2123.86 503.32 2125.04 508.46 2119.99 508.46L2113.17 507.95L2113.42 525.13H2324L2324.25 508.45H2317.69C2300.71 508.45 2291.67 498.57 2291.67 484.45C2291.67 473.54 2298.24 460.19 2298.24 460.19C2310.7 435.44 2329.47 415.86 2354.57 401.46C2379.66 387.06 2407.45 379.86 2437.93 379.86C2447.53 379.86 2456.87 380.61 2465.97 382.13L2508.41 485.19C2508.41 485.19 2510.93 490.75 2510.93 495.8C2510.93 508.3 2499.25 508.43 2497.29 508.43H2490.98V525.11H2595.63V507.68L2588.8 507.75L2588.77 507.78ZM1993.15 327.86V204.83C1993.15 188 2007.73 179.82 2018.16 179.82C2018.16 179.82 2101.12 180.12 2101.13 180.12C2163.85 180.12 2214.72 230.98 2214.72 293.71C2214.72 356.44 2162.4 407.14 2104.07 407.14C2102.99 407.14 2019.62 408.81 1993.16 327.86H1993.15ZM2434.36 363.21C2422.4 363.39 2410.69 364.73 2399.25 367.25C2397.57 367.59 2396.05 367.93 2394.7 368.26C2365.91 375.17 2341.15 387.88 2320.43 406.41L2394.19 228.57L2395.2 226.05C2396.21 223.86 2397.31 221.67 2398.48 219.49L2458.35 363.22H2434.35L2434.36 363.21Z" fill="#301D19"/>
<path d="M2525.22 169.47H2511.9V163.16H2546V169.47H2532.68V203.34H2525.22V169.47Z" fill="#301D19"/>
<path d="M2588.54 203.33L2588.48 176.69L2575.28 198.73H2571.95L2558.75 177.03V203.32H2551.63V163.14H2557.77L2573.73 189.78L2589.4 163.14H2595.54L2595.6 203.32H2588.54V203.33Z" fill="#301D19"/>
<path d="M1101.32 632.76L1077.59 704.35H1063.48L1045.79 651.37L1027.79 704.35H1013.58L989.85 632.76H1003.66L1021.45 687.17L1039.96 632.76H1052.23L1070.33 687.47L1088.64 632.76H1101.32Z" fill="#301D19"/>
<path d="M1153.07 632.76H1166.37V704.35H1153.07V632.76Z" fill="#301D19"/>
<path d="M1290.21 632.76V704.35H1279.27L1239.79 655.87V704.35H1226.6V632.76H1237.54L1277.02 681.24V632.76H1290.21Z" fill="#301D19"/>
<path d="M1404.04 693.2V704.35H1350.35V632.76H1402.61V643.91H1363.65V662.52H1398.22V673.46H1363.65V693.2H1404.05H1404.04Z" fill="#301D19"/>
<path d="M1543.43 644.01H1519.7V632.76H1580.45V644.01H1556.72V704.35H1543.43V644.01Z" fill="#301D19"/>
<path d="M1625.25 668.55C1625.25 647.38 1641.61 631.73 1663.81 631.73C1686.01 631.73 1702.36 647.27 1702.36 668.55C1702.36 689.83 1686 705.37 1663.81 705.37C1641.62 705.37 1625.25 689.72 1625.25 668.55ZM1688.96 668.55C1688.96 653.93 1678.22 643.39 1663.8 643.39C1649.38 643.39 1638.64 653.92 1638.64 668.55C1638.64 683.18 1649.38 693.71 1663.8 693.71C1678.22 693.71 1688.96 683.18 1688.96 668.55Z" fill="#301D19"/>
<path d="M1756.77 673.15V632.75H1770.06V672.63C1770.06 687.36 1776.71 693.7 1788.26 693.7C1799.81 693.7 1806.36 687.36 1806.36 672.63V632.75H1819.45V673.15C1819.45 694.01 1807.69 705.36 1788.16 705.36C1768.63 705.36 1756.76 694.01 1756.76 673.15H1756.77Z" fill="#301D19"/>
<path d="M1925.82 704.35L1911.2 683.38C1910.28 683.48 1909.36 683.48 1908.44 683.48H1892.28V704.34H1878.98V632.75H1908.43C1927.25 632.75 1938.91 642.36 1938.91 658.21C1938.91 669.05 1933.39 677.03 1923.67 680.81L1940.14 704.33H1925.82V704.35ZM1907.82 644.01H1892.27V672.54H1907.82C1919.48 672.54 1925.51 667.22 1925.51 658.22C1925.51 649.22 1919.48 644 1907.82 644V644.01Z" fill="#301D19"/>
<path d="M1988.61 696.78L1993.21 686.45C1998.94 691.05 2008.04 694.32 2016.83 694.32C2027.98 694.32 2032.68 690.33 2032.68 685.01C2032.68 669.57 1990.14 679.69 1990.14 653.1C1990.14 641.54 1999.34 631.73 2018.98 631.73C2027.57 631.73 2036.57 633.98 2042.81 638.07L2038.62 648.4C2032.18 644.62 2025.12 642.78 2018.88 642.78C2007.84 642.78 2003.34 647.08 2003.34 652.5C2003.34 667.74 2045.78 657.82 2045.78 684.1C2045.78 695.55 2036.47 705.37 2016.84 705.37C2005.69 705.37 1994.55 701.89 1988.61 696.78Z" fill="#301D19"/>
<path d="M407.54 57.23C213.93 57.23 57.9902 213.97 57.9902 406.78C57.9902 599.59 215.39 756.33 407.54 756.33C599.69 756.33 757.09 599.6 757.09 406.78C757.09 213.96 599.69 57.23 407.54 57.23ZM722.4 325.08H442.56L550.34 262.85C568.36 278.31 587.15 286.38 606.28 286.81C623.56 287.21 635.68 281.15 646.33 275.8C653.88 272.01 661.02 268.44 669.73 267.19C680.47 265.66 692.07 267.96 704.46 274.05C711.79 290.4 717.82 307.46 722.4 325.09V325.08ZM407.31 533.84C345.01 533.84 292.97 489.06 281.68 430.01C319.43 449.21 350.92 447.01 352.28 446.98C374.07 446.42 389.59 440.57 404.61 434.89C417.46 430.04 430.74 425.04 448.72 423.16C474.83 420.42 502.56 425.32 531.23 437.69C517.08 492.91 466.88 533.84 407.31 533.84ZM446.77 404.49C426.38 406.63 411.95 412.07 397.99 417.34C383.82 422.68 370.42 427.74 351.8 428.21C327.82 428.84 303.49 421.8 279.43 407.3C279.42 406.77 279.41 343.85 279.41 343.85H535.24V405.93C535.24 410.26 535.02 414.53 534.6 418.75C504.36 406.36 474.88 401.56 446.78 404.5L446.77 404.49ZM659 200.72C671.54 216.01 682.72 232.46 692.36 249.87C683.71 247.87 675.26 247.44 667.07 248.61C655.34 250.29 646.48 254.73 637.93 259.02C627.96 264.02 619.37 268.34 606.71 268.05C593.9 267.75 580.99 262.76 568.18 253.16L659 200.72ZM563.78 121.58L443.56 250.78C440.04 248.3 436.37 246.29 432.4 244.6L468.97 87.38C502.7 93.85 534.59 105.54 563.78 121.59V121.58ZM407.54 81.51C422.07 81.51 436.38 82.49 450.41 84.35L414.23 239.86C410.37 239.27 404.48 239.21 400.63 239.88L364.46 84.37C378.56 82.5 392.93 81.51 407.54 81.51ZM345.89 87.41L382.48 244.68C378.73 246.28 375.12 248.23 371.75 250.55L251.6 121.41C280.63 105.48 312.36 93.87 345.9 87.41H345.89ZM235.02 131.16L357.99 263.32C356.55 265.11 355.24 266.98 354.02 268.92L370.28 278.15C378.29 266.11 391.98 258.17 407.54 258.17C423.1 258.17 436.64 266.03 444.68 277.97L460.84 268.67C459.73 266.93 458.53 265.24 457.25 263.61L580.34 131.32C604.59 146.59 626.7 164.97 646.08 185.89L407.54 323.62L169 185.89C188.46 164.89 210.66 146.45 235.03 131.15L235.02 131.16ZM156.07 200.73L246.88 253.16C234.07 262.76 221.16 267.75 208.35 268.05C195.68 268.33 187.1 264.02 177.14 259.02C168.57 254.73 159.72 250.29 147.98 248.61C143.8 248.01 134.5 247.25 122.68 249.9C132.32 232.48 143.51 216.02 156.06 200.73H156.07ZM110.62 274.02C123 267.95 134.59 265.65 145.33 267.19C154.05 268.44 161.18 272.01 168.73 275.8C179.39 281.14 191.47 287.2 208.78 286.81C227.91 286.38 246.71 278.31 264.73 262.85L372.51 325.08H92.6699C97.2499 307.44 103.28 290.38 110.62 274.02ZM82.27 406.78C82.27 385.25 84.3801 364.21 88.3901 343.84H203.61L82.3501 413.84C82.3101 411.49 82.27 409.14 82.27 406.77V406.78ZM710.08 526.23L574 390.15V416.69L702.06 544.75C687.43 575.86 668.01 604.29 644.76 629.08L560.01 482.28C556.85 488.74 553.2 494.98 549.1 500.93L631.06 642.88C602.38 670.05 568.77 692.06 531.75 707.42C535.43 701.15 537.34 694.5 537.34 687.63C537.34 684.94 537.04 682.29 536.47 679.68L536.45 679.59C536.2 678.44 535.89 677.29 535.51 676.16L500.24 546.68C494.79 549.99 489.11 553.03 483.24 555.75L507.56 644.95C504.17 642.91 500.53 640.95 496.61 639.12C482.15 632.33 464.88 627.41 446.1 624.54V643.53C485.97 650.16 512.99 666.47 517.8 682.54L517.9 682.93C518.34 684.51 518.57 686.08 518.57 687.63C518.57 701.58 500.72 716.53 471.33 725.78C471.33 725.78 471.323 725.783 471.31 725.79C453.68 731.33 431.9 734.83 407.31 734.83C382.72 734.83 360.36 731.23 342.61 725.56C313.63 716.3 296.07 701.47 296.07 687.63C296.07 670.03 324.43 650.87 368.53 643.53V624.54C349.76 627.41 332.49 632.33 318.02 639.12C314.17 640.93 310.57 642.85 307.22 644.86L331.77 555.93C325.9 553.23 320.21 550.2 314.76 546.9L278.5 678.26H278.51C277.71 681.33 277.3 684.45 277.3 687.63C277.3 694.42 279.15 700.99 282.74 707.18C245.93 691.83 212.53 669.91 184 642.89L265.76 501.29C261.65 495.35 257.99 489.15 254.81 482.7L170.29 629.09C147.04 604.3 127.63 575.87 113 544.77L240.63 417.14V390.6L104.99 526.24C93.6202 497.56 86.2302 466.88 83.4902 434.9L241.16 343.87H260.64V405.95C260.64 483.68 321.41 547.47 397.94 552.32V677.63C397.94 679.83 402.15 681.6 407.32 681.6C412.49 681.6 416.7 679.82 416.7 677.63V552.32C493.23 547.46 554 483.68 554 405.95V343.87H573.94L731.6 434.89C728.85 466.88 721.47 497.56 710.09 526.25L710.08 526.23ZM611.48 343.85H726.69C730.7 364.22 732.81 385.26 732.81 406.79C732.81 409.15 732.78 411.5 732.73 413.86L611.48 343.86V343.85Z" fill="#301D19"/>
</svg>
