<svg width="60" height="61" viewBox="0 0 60 61" fill="none" xmlns="http://www.w3.org/2000/svg">
<path d="M29.5976 60.3944C25.6024 60.3944 21.7259 59.6036 18.0763 58.0449C14.5518 56.5391 11.3861 54.3837 8.66851 51.6389C5.95024 48.8934 3.81695 45.6966 2.32612 42.1368C0.782175 38.4507 0 34.5359 0 30.4999C0 26.4639 0.782902 22.5492 2.32612 18.863C3.81695 15.3032 5.95097 12.1064 8.66851 9.36091C11.3868 6.61538 14.5518 4.4607 18.0763 2.95492C21.7259 1.39549 25.6017 0.605469 29.5976 0.605469C33.5935 0.605469 37.4694 1.39622 41.119 2.95492C44.6434 4.4607 47.8092 6.61611 50.5268 9.36091C53.245 12.1064 55.3783 15.3032 56.8692 18.863C58.4131 22.5492 59.1952 26.4639 59.1952 30.4999C59.1952 34.5359 58.4124 38.4507 56.8692 42.1368C55.3783 45.6966 53.2443 48.8934 50.5268 51.6389C47.8085 54.3845 44.6434 56.5391 41.119 58.0449C37.4694 59.6044 33.5935 60.3944 29.5976 60.3944ZM29.5976 2.38977C14.252 2.38977 1.76657 14.9997 1.76657 30.4999C1.76657 46.0001 14.2513 58.61 29.5976 58.61C44.9439 58.61 57.4286 46.0001 57.4286 30.4999C57.4286 14.9997 44.9439 2.38977 29.5976 2.38977Z" fill="#301D19"/>
<path d="M29.5969 4.81104C15.5101 4.81104 4.16406 16.3296 4.16406 30.499C4.16406 44.6683 15.6163 56.1869 29.5969 56.1869C43.5776 56.1869 55.0298 44.669 55.0298 30.499C55.0298 16.3289 43.5776 4.81104 29.5969 4.81104ZM52.5059 24.495H32.1449L39.9869 19.9218C41.298 21.0579 42.6652 21.6509 44.0571 21.6825C45.3144 21.7119 46.1962 21.2666 46.9711 20.8734C47.5204 20.5949 48.0399 20.3326 48.6736 20.2407C49.4551 20.1283 50.299 20.2973 51.2005 20.7448C51.7338 21.9464 52.1726 23.2001 52.5059 24.4957V24.495ZM29.5802 39.8364C25.0473 39.8364 21.2609 36.5456 20.4395 32.2061C23.1861 33.6171 25.4773 33.4554 25.5763 33.4532C27.1617 33.4121 28.2909 32.9822 29.3838 32.5647C30.3187 32.2083 31.2849 31.8409 32.5931 31.7027C34.4929 31.5014 36.5105 31.8615 38.5965 32.7705C37.567 36.8286 33.9144 39.8364 29.5802 39.8364ZM32.4512 30.3307C30.9677 30.488 29.9178 30.8877 28.9021 31.275C27.8711 31.6674 26.8961 32.0393 25.5413 32.0738C23.7966 32.1201 22.0263 31.6028 20.2758 30.5372C20.275 30.4982 20.2743 25.8743 20.2743 25.8743H38.8883V30.4365C38.8883 30.7547 38.8722 31.0685 38.8417 31.3786C36.6414 30.4681 34.4965 30.1154 32.452 30.3314L32.4512 30.3307ZM47.8929 15.3559C48.8053 16.4796 49.6188 17.6884 50.3202 18.9679C49.6908 18.8209 49.076 18.7893 48.4801 18.8753C47.6266 18.9987 46.9819 19.325 46.3599 19.6403C45.6344 20.0077 45.0095 20.3252 44.0883 20.3039C43.1563 20.2818 42.217 19.9151 41.2849 19.2097L47.8929 15.3559ZM40.9648 9.54002L32.2177 19.0347C31.9616 18.8525 31.6946 18.7048 31.4058 18.5806L34.0665 7.02671C36.5207 7.50218 38.841 8.36126 40.9648 9.54075V9.54002ZM29.5969 6.59532C30.6541 6.59532 31.6953 6.66735 32.7161 6.80404L30.0837 18.2323C29.8029 18.1889 29.3743 18.1845 29.0942 18.2337L26.4625 6.80551C27.4884 6.66808 28.5339 6.59532 29.5969 6.59532ZM25.1113 7.02892L27.7736 18.5865C27.5008 18.7041 27.2381 18.8474 26.9929 19.0178L18.2509 9.52753C20.3631 8.35686 22.6718 7.50365 25.1121 7.02892H25.1113ZM17.0445 10.244L25.9918 19.9563C25.887 20.0878 25.7916 20.2253 25.7028 20.3678L26.886 21.0461C27.4688 20.1613 28.4648 19.5778 29.5969 19.5778C30.7291 19.5778 31.7142 20.1555 32.2992 21.0329L33.475 20.3495C33.3942 20.2216 33.3069 20.0974 33.2138 19.9776L42.1697 10.2558C43.9341 11.378 45.5428 12.7287 46.9529 14.2661L29.5969 24.3877L12.241 14.2661C13.6569 12.7228 15.2722 11.3677 17.0453 10.2433L17.0445 10.244ZM11.3002 15.3567L17.9075 19.2097C16.9754 19.9151 16.0361 20.2818 15.1041 20.3039C14.1822 20.3245 13.558 20.0077 12.8333 19.6403C12.2097 19.325 11.5658 18.9987 10.7116 18.8753C10.4075 18.8312 9.73085 18.7753 8.87084 18.9701C9.57223 17.6899 10.3864 16.4803 11.2995 15.3567H11.3002ZM7.99336 20.7426C8.89411 20.2965 9.73739 20.1275 10.5188 20.2407C11.1533 20.3326 11.672 20.5949 12.2214 20.8734C12.997 21.2659 13.8759 21.7112 15.1354 21.6825C16.5273 21.6509 17.8952 21.0579 19.2063 19.9218L27.0482 24.495H6.68732C7.02056 23.1986 7.45931 21.9449 7.99336 20.7426ZM5.93063 30.499C5.93063 28.9168 6.08416 27.3706 6.37593 25.8736H14.7592L5.93646 31.0178C5.93355 30.8451 5.93063 30.6724 5.93063 30.4982V30.499ZM51.6094 39.2772L41.7084 29.2769V31.2273L51.0259 40.6382C49.9614 42.9244 48.5484 45.0137 46.8568 46.8355L40.6905 36.0474C40.4606 36.5221 40.195 36.9807 39.8967 37.4179L45.86 47.8496C43.7733 49.8463 41.3279 51.4638 38.6343 52.5926C38.9021 52.1318 39.041 51.6431 39.041 51.1383C39.041 50.9406 39.0192 50.7458 38.9777 50.554L38.9763 50.5474C38.9581 50.4629 38.9355 50.3784 38.9079 50.2953L36.3417 40.78C35.9452 41.0233 35.5319 41.2467 35.1048 41.4466L36.8743 48.0018C36.6276 47.8519 36.3628 47.7078 36.0776 47.5733C35.0255 47.0743 33.7689 46.7128 32.4025 46.5019V47.8974C35.3034 48.3846 37.2694 49.5832 37.6193 50.7642L37.6266 50.7929C37.6587 50.909 37.6754 51.0244 37.6754 51.1383C37.6754 52.1634 36.3766 53.2621 34.2382 53.9418C34.2382 53.9418 34.2377 53.9421 34.2367 53.9426C32.954 54.3497 31.3693 54.6069 29.5802 54.6069C27.791 54.6069 26.1642 54.3424 24.8727 53.9257C22.7642 53.2452 21.4865 52.1553 21.4865 51.1383C21.4865 49.8449 23.55 48.4368 26.7586 47.8974V46.5019C25.3929 46.7128 24.1363 47.0743 23.0835 47.5733C22.8034 47.7063 22.5415 47.8474 22.2977 47.9952L24.084 41.4598C23.6569 41.2614 23.2429 41.0387 22.8463 40.7962L20.2081 50.4497H20.2088C20.1506 50.6753 20.1208 50.9046 20.1208 51.1383C20.1208 51.6372 20.2554 52.1201 20.5166 52.575C17.8384 51.4469 15.4082 49.836 13.3324 47.8504L19.2812 37.4444C18.9821 37.0079 18.7158 36.5522 18.4844 36.0782L12.3349 46.8362C10.6432 45.0145 9.23098 42.9252 8.16652 40.6397L17.4527 31.2603V29.3099L7.58373 39.2779C6.75646 37.1703 6.21878 34.9156 6.01942 32.5655L17.4913 25.8758H18.9086V30.438C18.9086 36.1503 23.3302 40.8381 28.8985 41.1945V50.4034C28.8985 50.565 29.2048 50.6951 29.581 50.6951C29.9571 50.6951 30.2634 50.5643 30.2634 50.4034V41.1945C35.8317 40.8374 40.2532 36.1503 40.2532 30.438V25.8758H41.7041L53.1752 32.5647C52.9751 34.9156 52.4381 37.1703 51.6101 39.2787L51.6094 39.2772ZM44.4354 25.8743H52.818C53.1098 27.3713 53.2632 28.9175 53.2632 30.4997C53.2632 30.6731 53.2611 30.8458 53.2575 31.0193L44.4354 25.8751V25.8743Z" fill="#301D19"/>
</svg>
