<svg width="1440" height="600" viewBox="0 0 1440 600" fill="none" xmlns="http://www.w3.org/2000/svg">
<g clip-path="url(#clip0_493_321)">
<rect width="1440" height="600" fill="#F8F8F8"/>
<path d="M1963.57 1003.89L1959.84 1316.59L1909.71 1320.54L1869.08 1403.54L1553.09 1382.49L1530.27 1388.19L1441.91 1384.25L1387.76 1361.65L1326.72 1360.03L1300.45 1377.28L1294.96 1377.84L1299.26 1216.84L1318.97 1213.74L1330.52 1209.87L1343.97 1214.94L1357.42 1219.94L1371.15 1213.53L1371.57 710.607L1371.78 486.389V436.407L1371.92 310.605L1384.52 307.296L1422.97 276.462L1447.19 259.144L1504.22 260.693L1508.45 105.887L1633.56 109.196L1636.03 250.133L1917.6 309.056L1828.46 659.076L1832.54 683.434L1819.31 1000.01L1963.57 1003.89Z" fill="#F8F8F8" stroke="#BFBFBF" stroke-width="1.58999" stroke-linecap="round" stroke-linejoin="round"/>
<path d="M2232.4 74.9827L2224.16 90.3999L2224.3 102.438L2235.22 143.41L2226.84 184.381L2223.74 202.051L2218.53 201.911L2216.84 206.064L2231.2 235.138L2230.43 262.735L2227.61 272.027L2229.51 278.363L2229.58 294.554L2222.4 309.479L2236.91 333.837L2232.54 374.949H2232.47L1917.67 309.056L1636.03 250.133L1633.56 109.196L1628.49 18.1009L1345.94 -2.03293L1337.28 8.17483L1331.51 19.4385L1310.31 40.8396L1251.17 68.4356L1244.41 87.0207L1234.69 98.4956L1233.5 142.002L1141.4 103.846L1139.36 93.075L1116.05 86.1759L1069.16 84.9088L1042.19 98.7772L1013.75 107.436L1036.56 74.4195L1041.07 51.8217L1076.13 -29.4178L1077.19 -68.4888L1066.06 -120.443L1084.86 -149.658L1085.49 -173.1L1096.41 -172.819L1115 -222.379L1128.66 -264.266L1168.79 -331.285L1187.8 -398.093L1190.19 -487.428V-487.499L1228.07 -527.414L1229.41 -576.904L1252.93 -579.931L1259.55 -573.525L1287.22 -573.807L1301.16 -569.231L1295.81 -563.669L1295.67 -557.404L1363.47 -556.137L1376.78 -548.463L1399.73 -566.626L1420.29 -573.877L1444.16 -569.583L1484.37 -571.624L1531.05 -599.08L1548.3 -599.643L1558.01 -612.455L1575.19 -611.963L1579.77 -607.668L1643.42 -605.979L1643.14 -596.545L1642.72 -581.973L1652.65 -581.691L1664.4 -572.54L1666.31 -566.767L1664.97 -555.785L1663.56 -540.227L1669.4 -524.95L1691.09 -516.01L1712.85 -512.279L1716.23 -501.226L1720.66 -492.215L1732.56 -487.78L1740.59 -477.08L1800.01 -474.968L1812.26 -482.5L1830.64 -467.928L1846.2 -464.338L1852.61 -469.406L1865.99 -462.789L1876.76 -474.475L1886.48 -467.928L1909.43 -467.365L1921.05 -472.222L1957.87 -466.027L1979.42 -470.673L1993.99 -487.991L2014.06 -459.339L2027.01 -436.038L2030.82 -402.528L2043.7 -377.677L2070.88 -359.726L2090.6 -356.558L2099.82 -349.518L2104.82 -342.126L2102.78 -324.949L2108.62 -308.617L2126.86 -299.747L2137.84 -289.046L2143.33 -260.183L2151.57 -237.585L2156.57 -209.285L2160.51 -201.33L2160.3 -174.227L2176.85 -148.179L2167.27 -141.703L2166.43 -130.721L2189.1 -100.379L2188.53 -59.1962L2195.44 -45.4686V-26.1795L2203.39 -11.8183L2218.53 -11.4663L2233.74 5.64049L2233.32 21.2689L2234.94 38.5868L2239.37 48.0906L2240.15 56.9608L2247.82 63.4374L2244.58 68.5764L2232.4 74.9827Z" fill="#F8F8F8" stroke="#BFBFBF" stroke-width="1.58999" stroke-linecap="round" stroke-linejoin="round"/>
<path d="M1190.19 -487.428L1187.8 -398.093L1168.79 -331.285L1128.65 -264.266L1114.99 -222.379L1096.41 -172.819L1085.49 -173.1L1084.86 -149.658L1066.06 -120.443L1077.18 -68.4887L1076.13 -29.4178L1041.06 51.8217L1036.56 74.4195L1013.74 107.436L952.418 138.623L945.377 148.619L945.87 128.626L832.51 125.599L831.031 178.679L837.086 216.905L905.102 218.736L894.189 247.388L871.798 264.002L851.239 272.872L833.707 284.136L812.231 297.652L726.684 304.692L708.447 256.469L683.029 240.137L653.457 205.712L645.642 205.501L624.448 178.327L600.227 177.694L594.665 122.009L579.456 105.113L553.053 67.6613L548.547 32.3214L534.887 -13.4374L504.048 -58.8442L476.447 -80.738L444.481 -85.5251L420.119 -79.8932L400.756 -29.5585L392.377 -8.65028L370.691 11.1316L354.779 20.0721L332.811 50.7657L321.897 50.4841L310.843 54.0744L294.93 64.6342L271.625 86.6688L258.88 94.131L235.082 106.451L215.085 123.487L179.88 122.572L81.3065 91.5967L47.6508 90.6815L39.8354 90.4703L19.5573 89.9071L-2.19956 82.4449L-32.0533 87.0912L-60.1468 94.6942L-77.4677 77.0243L-78.3831 53.0185L-97.3234 39.4316L-104.223 24.648L-111.264 -42.3006L-114.433 -60.1114L-115.348 -83.6243L-131.542 -84.5395L-126.896 -100.59L-114.785 -125.3L-92.5356 -136.212L-66.4133 -119.316L-66.9063 -102.139L-54.303 -85.5955L-41.9108 -78.4853L-26.5615 -87.4962L-18.3233 -104.462L-17.4784 -135.789L0.828016 -156.627L31.9491 -169.369L46.3834 -162.752L59.0571 -168.102L69.4777 -165.779L97.6416 -146.208L121.722 -149.235L148.055 -139.098L152.421 -146.349L156.434 -159.232L174.037 -174.438L234.518 -172.256L265.006 -200.696L264.724 -229.349L254.163 -243.71L257.683 -315.657L246.981 -326.357L236.913 -338.606L241.911 -369.793L287.115 -420.761L310.772 -448.78L311.195 -463.915L322.531 -497.495L328.093 -510.378L323.235 -524.106L323.728 -541.846L342.668 -545.999L360.623 -555.926L371.325 -544.732L422.724 -575.144L423.006 -586.126L433.919 -604.571L455.817 -603.444L468.279 -619.284L485.6 -604.782L496.866 -615.412L510.384 -613.511L543.759 -593.307L553.616 -593.025L564.459 -607.316L578.612 -608.513L594.665 -625.268L595.44 -652.371L613.605 -669.126L634.939 -667.507L665.92 -675.039L667.821 -687.007L660.287 -696.581L679.861 -707L706.969 -706.296L711.968 -660.748L720.206 -655.821L728.796 -646.739L734.64 -628.858L783.856 -578.453L806.035 -567.964L822.37 -573.807L839.973 -588.942L865.039 -589.365L862.293 -372.398L1076.62 -367.681L1190.19 -487.428Z" fill="#F8F8F8" stroke="#BFBFBF" stroke-width="1.58999" stroke-linecap="round" stroke-linejoin="round"/>
<path d="M1066.97 465.481L1059.37 485.826L1063.1 502.581L1039.59 524.897L1034.94 541.511L1034.16 569.67L995.509 611.346L979.385 629.72L952.136 633.169L934.956 611.839L935.309 599.308L889.683 588.678L869.123 576.71L869.546 560.026L879.474 541.511L879.755 530.036L823.638 523.278L781.392 501.314L760.762 493.429L733.795 486.46L722.952 463.228L700.28 452.176L676.2 416.062L652.19 377.835L636.911 365.938L611.916 363.193L590.089 359.461L497.852 335.104L477.433 319.898L477.01 296.948L464.9 280.967L464.196 267.521L449.621 267.169L437.792 279.207L403.784 285.051L201.356 600.505L198.891 594.521L182.838 563.968L162.912 534.471L155.167 517.012L127.918 496.738L112.991 470.902L104.331 473.014L97.3604 484.207L76.4484 532.923L72.5055 550.029L43.0037 569.178L17.5859 570.093L2.9405 561.434L-6.35366 542.074L-10.0852 506.312L-30.1518 436.97L-41.5586 382.622L-42.1216 373.611L-37.8267 344.044L-54.4433 321.658L-59.9355 309.76L-54.1618 298.215L-36.8408 293.146L-23.8856 291.95L-13.8171 282.868L-9.66271 273.153L-7.5505 251.682L-12.8312 244.924L-0.720521 216.694L6.03855 183.607L14.1359 174.807V159.953L2.02514 158.475L-14.521 149.041L-27.9691 124.754L-37.3337 108.492L-49.726 102.719L-60.1465 94.694L-32.053 87.0909L-2.19928 82.4446L19.5576 89.9069L39.8356 90.47L47.651 90.6812L81.3067 91.5964L179.881 122.572L215.086 123.487L235.082 106.45L258.881 94.1308L271.625 86.6685L294.931 64.6339L310.843 54.0742L321.898 50.4839L332.811 50.7655L354.779 20.0719L370.692 11.1313L392.378 -8.65055L400.756 -29.5588L420.119 -79.8935L444.481 -85.5254L476.447 -80.7383L504.048 -58.8445L534.888 -13.4376L548.547 32.3212L553.053 67.661L579.457 105.113L594.665 122.008L600.228 177.693L624.449 178.327L645.642 205.501L653.458 205.712L683.03 240.137L708.448 256.469L726.684 304.692L812.232 297.652L833.707 284.135L851.239 272.872L871.799 264.002L894.189 247.388L905.102 218.735L950.235 219.932L958.262 220.143L949.109 241.826L943.828 262.805L937.28 273.576L922.423 273.224L916.439 291.034L931.929 296.948L935.661 305.607L946.574 305.184L945.518 345.03L1098.73 380.44L1066.97 465.481Z" fill="#F8F8F8" stroke="#BFBFBF" stroke-width="1.58999" stroke-linecap="round" stroke-linejoin="round"/>
<path d="M807.093 774.036L805.614 828.524L781.182 860.204L770.55 866.187L758.51 887.729L728.656 909.905L713.025 909.482L692.606 931.869L623.182 991.566L566.361 1003.6L542.563 1041.55L541.999 1060.35L514.54 1074.21L483.559 1060.84L459.62 1058.09L394.42 1077.24L361.398 1064.85L300.845 1064.29L265.148 1073.72L241.49 1060.56L214.382 1058.8L196.287 1071.89L162.983 1070.98L110.598 1042.39V995.086L133.129 956.579L132.847 938.979L114.823 911.876L122.568 813.107L127.285 767.067L153.829 740.034L154.182 713.001L166.574 703.216L183.824 703.638L206.989 683.927L216.776 669.706L218.677 642.392L201.427 600.575L531.297 643.729L554.814 663.159L576.43 674.212L596.215 674.704L607.199 692.726L619.169 712.86L652.543 713.775L713.307 744.61L751.469 760.238L799.136 773.051L807.093 774.036Z" fill="#F8F8F8" stroke="#BFBFBF" stroke-width="1.58999" stroke-linecap="round" stroke-linejoin="round"/>
<path d="M967.485 179.735L950.728 201.699L950.235 219.932L905.102 218.736L837.086 216.905L831.031 178.679L906.439 168.683L944.602 175.582L967.485 179.735Z" fill="#F8F8F8" stroke="#BFBFBF" stroke-width="1.58999" stroke-linecap="round" stroke-linejoin="round"/>
<path d="M945.869 128.626L945.376 148.619L944.602 175.581L906.439 168.682L831.031 178.679L832.509 125.599L945.869 128.626Z" fill="#F8F8F8" stroke="#BFBFBF" stroke-width="1.58999" stroke-linecap="round" stroke-linejoin="round"/>
<path d="M1116.05 86.1759L1098.17 112.012L1097.53 136.299L1079.93 148.83L1074.37 190.436L1061.06 209.865L1060.78 222.396L1043.88 228.239L1025.43 195.927L988.611 187.62L978.964 180.017L967.488 179.735L944.604 175.582L945.379 148.619L952.42 138.622L1013.75 107.436L1042.19 98.7771L1069.16 84.9087L1116.05 86.1759Z" fill="#F8F8F8" stroke="#BFBFBF" stroke-width="1.58999" stroke-linecap="round" stroke-linejoin="round"/>
<path d="M1233.5 142.002L1197.8 227.676L1179.91 233.942L1139.57 317.926L1135.56 321.939L1122.67 334.963L1109.93 344.748L1098.73 380.44L945.52 345.03L946.576 305.184L935.663 305.607L931.931 296.948L916.441 291.034L922.426 273.224L937.282 273.576L943.83 262.805L949.111 241.826L958.264 220.143L950.238 219.932L950.73 201.699L967.488 179.735L978.965 180.017L988.611 187.62L1025.44 195.926L1043.88 228.239L1060.78 222.396L1061.06 209.865L1074.37 190.435L1079.93 148.83L1097.53 136.299L1098.17 112.012L1116.05 86.1758L1139.36 93.0748L1141.4 103.846L1233.5 142.002Z" fill="#F8F8F8" stroke="#BFBFBF" stroke-width="1.58999" stroke-linecap="round" stroke-linejoin="round"/>
<path d="M1371.57 710.607L1122.46 719.9L1147.67 949.046L807.093 774.036L811.881 745.947L821.809 726.658L853.704 704.835L874.405 692.092L896.302 690.332L909.61 663.3L920.171 648.727L952.137 633.169L979.386 629.72L995.51 611.346L1034.16 569.67L1034.94 541.511L1039.59 524.897L1063.1 502.581L1059.37 485.826L1066.98 465.481L1093.8 449.148L1089.37 438.87L1119.57 420.144L1136.05 420.567L1166.25 402.615L1220.19 397.828L1255.81 419.863L1265.74 427.184L1277.29 435.28L1291.79 449.008L1319.61 461.538L1333.69 461.89L1340.45 472.873L1360.02 473.365L1371.78 486.389L1371.57 710.607Z" fill="#F8F8F8" stroke="#BFBFBF" stroke-width="1.58999" stroke-linecap="round" stroke-linejoin="round"/>
<path d="M952.135 633.17L920.169 648.728L909.608 663.3L896.3 690.333L874.403 692.093L853.702 704.835L821.807 726.659L811.879 745.948L807.091 774.037L799.135 773.051L751.467 760.239L713.305 744.61L652.541 713.776L619.167 712.861L607.197 692.727L596.213 674.705L576.428 674.212L554.812 663.16L531.296 643.73L201.425 600.576H201.354V600.505L403.783 285.051L437.791 279.208L449.62 267.17L464.195 267.522L464.899 280.968L477.009 296.948L477.432 319.898L497.851 335.104L590.088 359.462L611.915 363.193L636.91 365.939L652.189 377.836L676.199 416.062L700.279 452.176L722.951 463.229L733.794 486.46L760.761 493.43L781.391 501.314L823.637 523.278L879.754 530.037L879.473 541.512L869.545 560.026L869.122 576.711L889.682 588.678L935.308 599.308L934.955 611.839L952.135 633.17Z" fill="#F8F8F8" stroke="#BFBFBF" stroke-width="1.58999" stroke-linecap="round" stroke-linejoin="round"/>
<path d="M1371.78 436.407V486.39L1360.02 473.366L1340.45 472.873L1333.69 461.891L1319.61 461.539L1291.8 449.008L1277.29 435.28L1265.74 427.185L1255.82 419.863L1220.19 397.829L1166.25 402.616L1136.05 420.567L1119.57 420.145L1089.37 438.871L1093.8 449.149L1066.98 465.481L1098.73 380.44L1109.93 344.748L1122.67 334.963L1135.56 321.939L1143.65 341.721L1153.51 322.432L1160.27 332.781L1172.73 337.075L1192.59 355.59L1200.9 337.849L1211.11 334.189L1236.74 341.933L1289.82 376.216L1312.92 390.155L1304.26 393.816L1304.05 400.081L1371.78 436.407Z" fill="#F8F8F8" stroke="#BFBFBF" stroke-width="1.58999" stroke-linecap="round" stroke-linejoin="round"/>
<path d="M1633.56 109.196L1508.44 105.887L1504.22 260.693L1447.19 259.144L1422.97 276.462L1384.52 307.296L1371.92 310.605L1371.78 436.406L1304.04 400.081L1304.26 393.816L1312.92 390.155L1289.82 376.216L1236.73 341.932L1211.1 334.188L1200.89 337.849L1192.59 355.589L1172.73 337.075L1160.27 332.78L1153.51 322.432L1143.65 341.721L1135.55 321.939L1139.57 317.926L1179.91 233.941L1197.8 227.676L1233.49 142.001L1234.69 98.4954L1244.41 87.0205L1251.17 68.4354L1310.31 40.8393L1331.5 19.4383L1337.28 8.17456L1345.94 -2.0332L1628.49 18.1007L1633.56 109.196Z" fill="#F8F8F8" stroke="#BFBFBF" stroke-width="1.58999" stroke-linecap="round" stroke-linejoin="round"/>
<path d="M1373.12 437.111L1371.78 436.407" stroke="#BFBFBF" stroke-width="1.58999" stroke-linecap="round" stroke-linejoin="round"/>
<g style="mix-blend-mode:multiply">
<path d="M464.972 435.421L498.698 383.115L602.13 416.414L682.89 473.577L700.563 560.659L751.892 591.916L809.417 687.728L807.094 774.036L805.052 850.418L826.175 931.658L800.475 1019.3L709.646 1114.9L634.589 1090.97L628.182 999.029L551.928 924.336L650.291 836.831L614.734 725.321L570.024 719.478L548.196 676.535L611.002 631.339L540.24 622.117L545.943 526.235L464.972 435.421Z" fill="#9CB57B"/>
</g>
<g style="mix-blend-mode:multiply">
<path d="M934.044 568.544L957.209 561.223L950.449 498.569L893.981 374.95L919.751 316.167L946.647 305.185L1047.97 319.476L1130.84 295.259L1090.21 241.827L1010.37 233.308L958.687 191.281L943.479 219.792L833.991 243.446L776.326 263.791L832.513 329.472L828.922 405.291L839.554 436.055L840.539 524.546L900.177 531.602L934.044 568.544Z" fill="#C0CA6A"/>
</g>
<path d="M662.19 590.248C672.623 590.248 681.081 581.792 681.081 571.36C681.081 560.929 672.623 552.473 662.19 552.473C651.757 552.473 643.3 560.929 643.3 571.36C643.3 581.792 651.757 590.248 662.19 590.248Z" fill="#D8301E" stroke="#301D19" stroke-width="1.58999"/>
<path d="M886.515 301.474C896.948 301.474 905.405 293.018 905.405 282.587C905.405 272.156 896.948 263.7 886.515 263.7C876.082 263.7 867.624 272.156 867.624 282.587C867.624 293.018 876.082 301.474 886.515 301.474Z" fill="#D8301E" stroke="#301D19" stroke-width="1.58999"/>
<path d="M894.825 354.062C900.28 354.062 904.703 349.64 904.703 344.185C904.703 338.731 900.28 334.309 894.825 334.309C889.37 334.309 884.947 338.731 884.947 344.185C884.947 349.64 889.37 354.062 894.825 354.062Z" fill="#D8301E" stroke="#301D19" stroke-width="1.58999"/>
<path d="M884.685 393.625C890.14 393.625 894.563 389.204 894.563 383.749C894.563 378.294 890.14 373.872 884.685 373.872C879.23 373.872 874.807 378.294 874.807 383.749C874.807 389.204 879.23 393.625 884.685 393.625Z" fill="#D8301E" stroke="#301D19" stroke-width="1.58999"/>
<path d="M975.514 257.687C985.947 257.687 994.404 249.231 994.404 238.799C994.404 228.368 985.947 219.912 975.514 219.912C965.081 219.912 956.623 228.368 956.623 238.799C956.623 249.231 965.081 257.687 975.514 257.687Z" fill="#D8301E" stroke="#301D19" stroke-width="1.58999"/>
<path d="M916.911 148.338C916.911 161.506 906.234 172.182 893.063 172.182C879.892 172.182 869.214 161.506 869.214 148.338C869.214 135.169 879.892 124.493 893.063 124.493C906.234 124.493 916.911 135.169 916.911 148.338Z" fill="#487235" stroke="#301D19" stroke-width="1.58999"/>
<path d="M911.744 229.083C911.651 228.747 911.349 228.511 911.001 228.501C910.652 228.491 910.337 228.709 910.225 229.039L906.816 239.063L896.607 238.755C896.265 238.745 895.954 238.955 895.836 239.277C895.719 239.598 895.82 239.959 896.089 240.172L904.256 246.66L900.837 256.71C900.726 257.038 900.839 257.4 901.118 257.606C901.397 257.811 901.776 257.813 902.056 257.61L910.33 251.616L918.463 258.077C918.734 258.293 919.114 258.308 919.401 258.115C919.688 257.922 919.818 257.565 919.721 257.232L916.749 247.032L925.208 241.012C925.486 240.814 925.607 240.46 925.508 240.133C925.409 239.807 925.112 239.58 924.771 239.569L914.561 239.261L911.744 229.083Z" fill="#FFE921" stroke="#301D19" stroke-width="1.58999" stroke-linejoin="round"/>
<path d="M1066.65 299.481C1066.55 299.145 1066.25 298.909 1065.9 298.899C1065.55 298.889 1065.24 299.107 1065.13 299.437L1061.72 309.461L1051.51 309.153C1051.17 309.143 1050.86 309.352 1050.74 309.672C1050.62 309.991 1050.72 310.351 1050.98 310.566L1059 317.053L1055.58 327.108C1055.47 327.435 1055.58 327.796 1055.86 328.002C1056.14 328.208 1056.52 328.212 1056.8 328.012L1065.23 322.011L1073.37 328.475C1073.64 328.69 1074.02 328.706 1074.3 328.513C1074.59 328.32 1074.72 327.963 1074.62 327.63L1071.65 317.43L1080.11 311.409C1080.39 311.211 1080.51 310.858 1080.41 310.531C1080.31 310.204 1080.01 309.977 1079.67 309.967L1069.46 309.659L1066.65 299.481Z" fill="#FFE921" stroke="#301D19" stroke-width="1.58999" stroke-linejoin="round"/>
<path d="M968.465 469.663V430.966H974.381L991.297 459.215H988.201L1004.84 430.966H1010.76L1010.81 469.663H1004.01L1003.96 441.635H1005.39L991.241 465.241H988.035L973.662 441.635H975.32V469.663H968.465ZM1027.9 447.053H1047.14V452.968H1027.9V447.053ZM1028.45 463.637H1050.29V469.663H1021.26V430.966H1049.51V436.992H1028.45V463.637ZM1058.3 469.663V430.966H1064.21L1088.48 460.763H1085.55V430.966H1092.68V469.663H1086.77L1062.5 439.866H1065.43V469.663H1058.3ZM1103.05 469.663V430.966H1119.97C1124.17 430.966 1127.85 431.777 1131.02 433.399C1134.19 435.02 1136.66 437.268 1138.43 440.143C1140.2 443.018 1141.09 446.408 1141.09 450.315C1141.09 454.184 1140.2 457.575 1138.43 460.486C1136.66 463.361 1134.19 465.609 1131.02 467.231C1127.85 468.852 1124.17 469.663 1119.97 469.663H1103.05ZM1110.24 463.582H1119.64C1122.55 463.582 1125.05 463.029 1127.15 461.924C1129.29 460.818 1130.93 459.27 1132.07 457.28C1133.25 455.29 1133.84 452.968 1133.84 450.315C1133.84 447.624 1133.25 445.302 1132.07 443.349C1130.93 441.359 1129.29 439.811 1127.15 438.706C1125.05 437.6 1122.55 437.047 1119.64 437.047H1110.24V463.582ZM1166.86 470.216C1163.83 470.216 1161.05 469.718 1158.51 468.723C1155.97 467.728 1153.75 466.346 1151.87 464.577C1149.99 462.771 1148.54 460.671 1147.51 458.275C1146.48 455.843 1145.96 453.189 1145.96 450.315C1145.96 447.44 1146.48 444.805 1147.51 442.409C1148.54 439.977 1149.99 437.876 1151.87 436.107C1153.75 434.301 1155.97 432.901 1158.51 431.906C1161.05 430.911 1163.82 430.413 1166.8 430.413C1169.82 430.413 1172.59 430.911 1175.09 431.906C1177.64 432.901 1179.85 434.301 1181.73 436.107C1183.61 437.876 1185.06 439.977 1186.09 442.409C1187.13 444.805 1187.64 447.44 1187.64 450.315C1187.64 453.189 1187.13 455.843 1186.09 458.275C1185.06 460.708 1183.61 462.808 1181.73 464.577C1179.85 466.346 1177.64 467.728 1175.09 468.723C1172.59 469.718 1169.84 470.216 1166.86 470.216ZM1166.8 463.914C1168.75 463.914 1170.56 463.582 1172.22 462.919C1173.88 462.255 1175.31 461.316 1176.53 460.099C1177.75 458.846 1178.69 457.409 1179.35 455.787C1180.05 454.129 1180.4 452.305 1180.4 450.315C1180.4 448.325 1180.05 446.519 1179.35 444.897C1178.69 443.239 1177.75 441.801 1176.53 440.585C1175.31 439.332 1173.88 438.374 1172.22 437.711C1170.56 437.047 1168.75 436.715 1166.8 436.715C1164.85 436.715 1163.04 437.047 1161.38 437.711C1159.76 438.374 1158.32 439.332 1157.07 440.585C1155.85 441.801 1154.9 443.239 1154.2 444.897C1153.53 446.519 1153.2 448.325 1153.2 450.315C1153.2 452.268 1153.53 454.074 1154.2 455.732C1154.9 457.391 1155.85 458.846 1157.07 460.099C1158.29 461.316 1159.72 462.255 1161.38 462.919C1163.04 463.582 1164.85 463.914 1166.8 463.914ZM1191.9 469.663V464.854L1216.88 434.338L1217.71 437.047H1192.28V430.966H1224.18V435.776L1199.19 466.291L1198.31 463.582H1224.9V469.663H1191.9ZM1226.01 469.663L1243.42 430.966H1250.5L1267.97 469.663H1260.45L1245.47 434.781H1248.34L1233.42 469.663H1226.01ZM1234.03 460.708L1235.96 455.069H1256.86L1258.79 460.708H1234.03ZM1022.64 516.663L1005.72 477.966H1013.52L1028.61 512.959H1024.13L1039.39 477.966H1046.58L1029.71 516.663H1022.64ZM1043.94 516.663L1061.36 477.966H1068.43L1085.9 516.663H1078.38L1063.4 481.781H1066.28L1051.35 516.663H1043.94ZM1051.96 507.708L1053.89 502.069H1074.79L1076.73 507.708H1051.96ZM1090.82 516.663V477.966H1098.01V510.582H1118.24V516.663H1090.82ZM1123.92 516.663V477.966H1131.1V510.582H1151.34V516.663H1123.92ZM1163.64 494.053H1182.88V499.968H1163.64V494.053ZM1164.2 510.637H1186.03V516.663H1157.01V477.966H1185.26V483.992H1164.2V510.637ZM1203.12 516.663V501.35L1204.72 505.773L1187.92 477.966H1195.6L1209.09 500.355H1204.78L1218.38 477.966H1225.45L1208.65 505.773L1210.31 501.35V516.663H1203.12Z" fill="#C0CA6A"/>
<path d="M816.387 115.765V95.5144H820.264L828.885 109.806H826.831L835.307 95.5144H839.155L839.212 115.765H834.815L834.786 102.255H835.596L828.827 113.624H826.715L819.801 102.255H820.784V115.765H816.387ZM848.328 103.673H858.077V107.318H848.328V103.673ZM848.675 112.004H859.697V115.765H844.017V95.5144H859.321V99.2753H848.675V112.004ZM863.426 115.765V95.5144H867.302L879.25 110.095H877.37V95.5144H881.999V115.765H878.151L866.174 101.185H868.055V115.765H863.426ZM886.79 115.765V95.5144H895.989C898.188 95.5144 900.126 95.9387 901.804 96.7873C903.482 97.6166 904.794 98.7835 905.739 100.288C906.684 101.792 907.156 103.576 907.156 105.64C907.156 107.684 906.684 109.468 905.739 110.992C904.794 112.496 903.482 113.673 901.804 114.521C900.126 115.35 898.188 115.765 895.989 115.765H886.79ZM891.476 111.918H895.758C897.108 111.918 898.275 111.667 899.258 111.165C900.261 110.645 901.033 109.912 901.573 108.967C902.132 108.022 902.412 106.913 902.412 105.64C902.412 104.348 902.132 103.239 901.573 102.313C901.033 101.368 900.261 100.645 899.258 100.143C898.275 99.6224 897.108 99.3621 895.758 99.3621H891.476V111.918ZM920.527 116.112C918.926 116.112 917.441 115.852 916.072 115.331C914.722 114.81 913.545 114.078 912.542 113.133C911.559 112.188 910.787 111.079 910.228 109.806C909.688 108.533 909.418 107.144 909.418 105.64C909.418 104.135 909.688 102.747 910.228 101.474C910.787 100.201 911.568 99.0921 912.571 98.147C913.574 97.202 914.75 96.4691 916.1 95.9484C917.451 95.4276 918.916 95.1673 920.498 95.1673C922.099 95.1673 923.564 95.4276 924.895 95.9484C926.245 96.4691 927.412 97.202 928.396 98.147C929.398 99.0921 930.18 100.201 930.739 101.474C931.298 102.728 931.578 104.116 931.578 105.64C931.578 107.144 931.298 108.542 930.739 109.835C930.18 111.107 929.398 112.216 928.396 113.161C927.412 114.087 926.245 114.81 924.895 115.331C923.564 115.852 922.108 116.112 920.527 116.112ZM920.498 112.12C921.404 112.12 922.234 111.966 922.986 111.657C923.757 111.349 924.432 110.905 925.011 110.326C925.589 109.748 926.033 109.063 926.342 108.272C926.669 107.482 926.833 106.604 926.833 105.64C926.833 104.675 926.669 103.798 926.342 103.007C926.033 102.216 925.589 101.532 925.011 100.953C924.451 100.375 923.786 99.931 923.015 99.6224C922.243 99.3138 921.404 99.1596 920.498 99.1596C919.591 99.1596 918.752 99.3138 917.981 99.6224C917.229 99.931 916.563 100.375 915.985 100.953C915.406 101.532 914.953 102.216 914.625 103.007C914.316 103.798 914.162 104.675 914.162 105.64C914.162 106.585 914.316 107.462 914.625 108.272C914.953 109.063 915.397 109.748 915.956 110.326C916.534 110.905 917.209 111.349 917.981 111.657C918.752 111.966 919.591 112.12 920.498 112.12ZM933.6 115.765V112.728L946.127 97.6263L946.705 99.3331H933.832V95.5144H950.871V98.552L938.374 113.653L937.795 111.946H951.305V115.765H933.6ZM951.65 115.765L960.676 95.5144H965.304L974.359 115.765H969.441L962.035 97.8867H963.887L956.452 115.765H951.65ZM956.163 111.426L957.407 107.867H967.821L969.094 111.426H956.163Z" fill="#301D19"/>
<path d="M1006.2 247.463V231.6H1009.24L1015.99 242.795H1014.38L1021.02 231.6H1024.04L1024.08 247.463H1020.64L1020.61 236.88H1021.25L1015.95 245.786H1014.29L1008.88 236.88H1009.65V247.463H1006.2ZM1035.07 247.463V245.084L1034.85 244.563V240.302C1034.85 239.547 1034.61 238.958 1034.15 238.535C1033.69 238.112 1032.99 237.9 1032.04 237.9C1031.39 237.9 1030.75 238.006 1030.11 238.217C1029.49 238.414 1028.96 238.686 1028.53 239.033L1027.26 236.563C1027.92 236.095 1028.72 235.732 1029.66 235.475C1030.6 235.219 1031.55 235.09 1032.51 235.09C1034.37 235.09 1035.82 235.528 1036.84 236.405C1037.87 237.281 1038.38 238.648 1038.38 240.506V247.463H1035.07ZM1031.36 247.645C1030.41 247.645 1029.59 247.486 1028.91 247.169C1028.23 246.836 1027.71 246.391 1027.35 245.832C1026.98 245.273 1026.8 244.646 1026.8 243.951C1026.8 243.226 1026.98 242.591 1027.32 242.047C1027.69 241.503 1028.25 241.08 1029.02 240.778C1029.79 240.461 1030.8 240.302 1032.04 240.302H1035.28V242.365H1032.42C1031.59 242.365 1031.02 242.501 1030.7 242.772C1030.4 243.044 1030.25 243.384 1030.25 243.792C1030.25 244.245 1030.42 244.608 1030.77 244.88C1031.13 245.137 1031.62 245.265 1032.24 245.265C1032.83 245.265 1033.36 245.129 1033.83 244.857C1034.3 244.57 1034.64 244.155 1034.85 243.611L1035.39 245.243C1035.14 246.028 1034.67 246.625 1033.99 247.033C1033.31 247.441 1032.43 247.645 1031.36 247.645ZM1041.58 247.463V235.271H1045.12V247.463H1041.58ZM1043.35 233.572C1042.7 233.572 1042.17 233.383 1041.76 233.005C1041.36 232.628 1041.15 232.159 1041.15 231.6C1041.15 231.041 1041.36 230.573 1041.76 230.195C1042.17 229.818 1042.7 229.629 1043.35 229.629C1044 229.629 1044.53 229.81 1044.94 230.173C1045.34 230.52 1045.55 230.973 1045.55 231.532C1045.55 232.122 1045.34 232.613 1044.94 233.005C1044.54 233.383 1044.02 233.572 1043.35 233.572ZM1055.61 247.645C1054.58 247.645 1053.68 247.418 1052.91 246.965C1052.14 246.512 1051.53 245.824 1051.1 244.903C1050.67 243.966 1050.46 242.788 1050.46 241.367C1050.46 239.932 1050.67 238.754 1051.07 237.832C1051.48 236.911 1052.07 236.223 1052.84 235.77C1053.61 235.317 1054.53 235.09 1055.61 235.09C1056.75 235.09 1057.78 235.355 1058.69 235.883C1059.61 236.397 1060.33 237.122 1060.86 238.059C1061.41 238.996 1061.68 240.098 1061.68 241.367C1061.68 242.652 1061.41 243.762 1060.86 244.699C1060.33 245.635 1059.61 246.361 1058.69 246.874C1057.78 247.388 1056.75 247.645 1055.61 247.645ZM1048.4 251.86V235.271H1051.78V237.764L1051.71 241.39L1051.93 244.993V251.86H1048.4ZM1054.99 244.744C1055.58 244.744 1056.1 244.608 1056.56 244.336C1057.03 244.064 1057.4 243.679 1057.67 243.18C1057.95 242.667 1058.1 242.062 1058.1 241.367C1058.1 240.657 1057.95 240.053 1057.67 239.555C1057.4 239.056 1057.03 238.671 1056.56 238.399C1056.1 238.127 1055.58 237.991 1054.99 237.991C1054.4 237.991 1053.88 238.127 1053.41 238.399C1052.94 238.671 1052.57 239.056 1052.3 239.555C1052.02 240.053 1051.89 240.657 1051.89 241.367C1051.89 242.062 1052.02 242.667 1052.3 243.18C1052.57 243.679 1052.94 244.064 1053.41 244.336C1053.88 244.608 1054.4 244.744 1054.99 244.744ZM1069.19 247.645C1068.18 247.645 1067.27 247.448 1066.47 247.055C1065.68 246.663 1065.07 246.066 1064.63 245.265C1064.2 244.449 1063.98 243.415 1063.98 242.161V235.271H1067.51V241.639C1067.51 242.652 1067.72 243.399 1068.15 243.883C1068.59 244.351 1069.2 244.585 1069.98 244.585C1070.53 244.585 1071.01 244.472 1071.43 244.245C1071.86 244.004 1072.19 243.641 1072.43 243.158C1072.67 242.659 1072.79 242.04 1072.79 241.299V235.271H1076.33V247.463H1072.97V244.109L1073.59 245.084C1073.18 245.93 1072.57 246.572 1071.77 247.01C1070.99 247.433 1070.13 247.645 1069.19 247.645ZM1068.08 233.708L1071.14 230.445H1074.95L1070.84 233.708H1068.08Z" fill="#301D19"/>
<path d="M693.08 579.812V566.94H688.004V563.949H701.827V566.94H696.751V579.812H693.08ZM708.432 579.993C707.42 579.993 706.513 579.797 705.712 579.404C704.927 579.011 704.315 578.415 703.877 577.614C703.439 576.798 703.22 575.763 703.22 574.509V567.62H706.755V573.988C706.755 575 706.966 575.748 707.389 576.231C707.828 576.7 708.439 576.934 709.225 576.934C709.769 576.934 710.252 576.821 710.675 576.594C711.098 576.352 711.431 575.99 711.672 575.506C711.914 575.008 712.035 574.388 712.035 573.648V567.62H715.57V579.812H712.216V576.458L712.828 577.433C712.42 578.279 711.816 578.921 711.015 579.359C710.23 579.782 709.369 579.993 708.432 579.993ZM726.052 579.993C725.024 579.993 724.125 579.767 723.355 579.313C722.584 578.86 721.98 578.173 721.542 577.251C721.119 576.315 720.908 575.136 720.908 573.716C720.908 572.281 721.111 571.102 721.519 570.181C721.927 569.259 722.517 568.572 723.287 568.119C724.057 567.665 724.979 567.439 726.052 567.439C727.2 567.439 728.227 567.703 729.134 568.232C730.055 568.746 730.78 569.471 731.309 570.407C731.853 571.344 732.125 572.447 732.125 573.716C732.125 575 731.853 576.111 731.309 577.047C730.78 577.984 730.055 578.709 729.134 579.223C728.227 579.736 727.2 579.993 726.052 579.993ZM718.845 584.208V567.62H722.222V570.113L722.154 573.739L722.381 577.342V584.208H718.845ZM725.44 577.093C726.029 577.093 726.55 576.957 727.003 576.685C727.472 576.413 727.842 576.028 728.114 575.529C728.401 575.015 728.544 574.411 728.544 573.716C728.544 573.006 728.401 572.402 728.114 571.903C727.842 571.405 727.472 571.019 727.003 570.747C726.55 570.475 726.029 570.34 725.44 570.34C724.851 570.34 724.322 570.475 723.854 570.747C723.385 571.019 723.015 571.405 722.743 571.903C722.471 572.402 722.335 573.006 722.335 573.716C722.335 574.411 722.471 575.015 722.743 575.529C723.015 576.028 723.385 576.413 723.854 576.685C724.322 576.957 724.851 577.093 725.44 577.093ZM739.636 579.993C738.623 579.993 737.717 579.797 736.916 579.404C736.131 579.011 735.519 578.415 735.081 577.614C734.643 576.798 734.424 575.763 734.424 574.509V567.62H737.959V573.988C737.959 575 738.17 575.748 738.593 576.231C739.031 576.7 739.643 576.934 740.429 576.934C740.973 576.934 741.456 576.821 741.879 576.594C742.302 576.352 742.635 575.99 742.876 575.506C743.118 575.008 743.239 574.388 743.239 573.648V567.62H746.774V579.812H743.42V576.458L744.032 577.433C743.624 578.279 743.02 578.921 742.219 579.359C741.433 579.782 740.572 579.993 739.636 579.993ZM757.459 567.439C758.426 567.439 759.288 567.635 760.043 568.028C760.813 568.406 761.418 568.995 761.856 569.796C762.294 570.581 762.513 571.593 762.513 572.832V579.812H758.978V573.376C758.978 572.394 758.759 571.669 758.321 571.201C757.898 570.732 757.293 570.498 756.508 570.498C755.949 570.498 755.443 570.619 754.989 570.861C754.551 571.087 754.204 571.442 753.947 571.926C753.705 572.409 753.584 573.029 753.584 573.784V579.812H750.049V567.62H753.426V570.997L752.791 569.977C753.229 569.161 753.856 568.534 754.672 568.096C755.488 567.658 756.417 567.439 757.459 567.439ZM771.539 584.39C770.391 584.39 769.281 584.246 768.208 583.959C767.151 583.687 766.267 583.272 765.557 582.713L766.962 580.175C767.475 580.598 768.125 580.93 768.911 581.172C769.711 581.429 770.497 581.557 771.267 581.557C772.521 581.557 773.428 581.277 773.987 580.718C774.561 580.159 774.848 579.329 774.848 578.226V576.39L775.075 573.331L775.029 570.249V567.62H778.383V577.772C778.383 580.039 777.794 581.708 776.616 582.781C775.437 583.853 773.745 584.39 771.539 584.39ZM770.995 579.223C769.862 579.223 768.835 578.981 767.914 578.498C767.007 577.999 766.274 577.312 765.715 576.435C765.171 575.544 764.9 574.509 764.9 573.331C764.9 572.137 765.171 571.102 765.715 570.226C766.274 569.335 767.007 568.647 767.914 568.164C768.835 567.681 769.862 567.439 770.995 567.439C772.023 567.439 772.929 567.65 773.715 568.073C774.5 568.481 775.112 569.123 775.55 570C775.989 570.861 776.208 571.971 776.208 573.331C776.208 574.675 775.989 575.786 775.55 576.662C775.112 577.523 774.5 578.165 773.715 578.588C772.929 579.011 772.023 579.223 770.995 579.223ZM771.698 576.322C772.317 576.322 772.869 576.201 773.352 575.96C773.836 575.703 774.213 575.348 774.485 574.894C774.757 574.441 774.893 573.92 774.893 573.331C774.893 572.727 774.757 572.205 774.485 571.767C774.213 571.314 773.836 570.966 773.352 570.725C772.869 570.468 772.317 570.34 771.698 570.34C771.079 570.34 770.527 570.468 770.044 570.725C769.56 570.966 769.175 571.314 768.888 571.767C768.616 572.205 768.48 572.727 768.48 573.331C768.48 573.92 768.616 574.441 768.888 574.894C769.175 575.348 769.56 575.703 770.044 575.96C770.527 576.201 771.079 576.322 771.698 576.322ZM789.152 579.812V577.433L788.925 576.911V572.651C788.925 571.896 788.691 571.306 788.223 570.883C787.769 570.46 787.067 570.249 786.115 570.249C785.466 570.249 784.823 570.355 784.189 570.566C783.569 570.763 783.041 571.034 782.603 571.382L781.334 568.912C781.998 568.443 782.799 568.081 783.736 567.824C784.672 567.567 785.624 567.439 786.591 567.439C788.449 567.439 789.892 567.877 790.919 568.753C791.947 569.629 792.46 570.997 792.46 572.855V579.812H789.152ZM785.435 579.993C784.484 579.993 783.668 579.835 782.988 579.517C782.308 579.185 781.787 578.739 781.424 578.18C781.062 577.621 780.88 576.994 780.88 576.299C780.88 575.574 781.054 574.94 781.402 574.396C781.764 573.852 782.331 573.429 783.101 573.127C783.872 572.81 784.876 572.651 786.115 572.651H789.356V574.713H786.5C785.669 574.713 785.095 574.849 784.778 575.121C784.476 575.393 784.325 575.733 784.325 576.141C784.325 576.594 784.499 576.957 784.846 577.229C785.209 577.485 785.7 577.614 786.319 577.614C786.908 577.614 787.437 577.478 787.905 577.206C788.374 576.919 788.714 576.503 788.925 575.96L789.469 577.591C789.212 578.377 788.744 578.974 788.064 579.381C787.384 579.789 786.508 579.993 785.435 579.993ZM800.645 579.993C799.21 579.993 798.092 579.631 797.292 578.906C796.491 578.165 796.09 577.07 796.09 575.62V564.923H799.626V575.574C799.626 576.088 799.762 576.488 800.034 576.775C800.305 577.047 800.676 577.183 801.144 577.183C801.703 577.183 802.179 577.032 802.572 576.73L803.523 579.223C803.161 579.48 802.723 579.676 802.209 579.812C801.711 579.933 801.189 579.993 800.645 579.993ZM794.21 570.611V567.892H802.662V570.611H794.21ZM810.933 579.993C809.634 579.993 808.478 579.721 807.466 579.177C806.469 578.634 805.676 577.893 805.086 576.957C804.512 576.005 804.225 574.925 804.225 573.716C804.225 572.492 804.512 571.412 805.086 570.475C805.676 569.524 806.469 568.783 807.466 568.255C808.478 567.711 809.634 567.439 810.933 567.439C812.217 567.439 813.365 567.711 814.378 568.255C815.39 568.783 816.183 569.516 816.757 570.453C817.331 571.389 817.618 572.477 817.618 573.716C817.618 574.925 817.331 576.005 816.757 576.957C816.183 577.893 815.39 578.634 814.378 579.177C813.365 579.721 812.217 579.993 810.933 579.993ZM810.933 577.093C811.522 577.093 812.051 576.957 812.519 576.685C812.988 576.413 813.358 576.028 813.63 575.529C813.902 575.015 814.038 574.411 814.038 573.716C814.038 573.006 813.902 572.402 813.63 571.903C813.358 571.405 812.988 571.019 812.519 570.747C812.051 570.475 811.522 570.34 810.933 570.34C810.344 570.34 809.815 570.475 809.347 570.747C808.878 571.019 808.501 571.405 808.214 571.903C807.942 572.402 807.806 573.006 807.806 573.716C807.806 574.411 807.942 575.015 808.214 575.529C808.501 576.028 808.878 576.413 809.347 576.685C809.815 576.957 810.344 577.093 810.933 577.093Z" fill="#301D19"/>
<path d="M695.019 290.434V274.571H698.69V287.443H706.644V290.434H695.019ZM713.524 290.615C712.511 290.615 711.605 290.419 710.804 290.026C710.019 289.633 709.407 289.037 708.969 288.236C708.531 287.42 708.311 286.385 708.311 285.131V278.242H711.847V284.61C711.847 285.622 712.058 286.37 712.481 286.854C712.919 287.322 713.531 287.556 714.317 287.556C714.861 287.556 715.344 287.443 715.767 287.216C716.19 286.974 716.522 286.612 716.764 286.128C717.006 285.63 717.127 285.01 717.127 284.27V278.242H720.662V290.434H717.308V287.08L717.92 288.055C717.512 288.901 716.908 289.543 716.107 289.981C715.321 290.404 714.46 290.615 713.524 290.615ZM723.031 295.012C722.487 295.012 721.966 294.951 721.467 294.83C720.968 294.725 720.545 294.558 720.198 294.332L721.15 291.771C721.558 292.058 722.056 292.202 722.645 292.202C723.084 292.202 723.431 292.051 723.688 291.748C723.96 291.461 724.096 291.023 724.096 290.434V278.242H727.631V290.411C727.631 291.816 727.231 292.934 726.43 293.765C725.629 294.596 724.496 295.012 723.031 295.012ZM725.863 276.543C725.214 276.543 724.685 276.354 724.277 275.976C723.869 275.598 723.665 275.13 723.665 274.571C723.665 274.012 723.869 273.544 724.277 273.166C724.685 272.788 725.214 272.599 725.863 272.599C726.513 272.599 727.042 272.781 727.45 273.143C727.858 273.491 728.062 273.944 728.062 274.503C728.062 275.092 727.858 275.583 727.45 275.976C727.057 276.354 726.528 276.543 725.863 276.543ZM738.364 290.434V288.055L738.138 287.533V283.273C738.138 282.518 737.904 281.928 737.435 281.505C736.982 281.082 736.279 280.871 735.328 280.871C734.678 280.871 734.036 280.977 733.401 281.188C732.782 281.385 732.253 281.657 731.815 282.004L730.546 279.534C731.211 279.066 732.012 278.703 732.948 278.446C733.885 278.189 734.837 278.061 735.804 278.061C737.662 278.061 739.105 278.499 740.132 279.375C741.159 280.252 741.673 281.619 741.673 283.477V290.434H738.364ZM734.648 290.615C733.696 290.615 732.88 290.457 732.2 290.139C731.521 289.807 730.999 289.361 730.637 288.802C730.274 288.243 730.093 287.617 730.093 286.922C730.093 286.196 730.267 285.562 730.614 285.018C730.977 284.474 731.543 284.051 732.314 283.749C733.084 283.432 734.089 283.273 735.328 283.273H738.568V285.335H735.713C734.882 285.335 734.308 285.471 733.991 285.743C733.689 286.015 733.537 286.355 733.537 286.763C733.537 287.216 733.711 287.579 734.059 287.851C734.421 288.108 734.912 288.236 735.532 288.236C736.121 288.236 736.65 288.1 737.118 287.828C737.586 287.541 737.926 287.126 738.138 286.582L738.682 288.213C738.425 288.999 737.956 289.596 737.277 290.004C736.597 290.411 735.721 290.615 734.648 290.615ZM734.104 276.679L737.163 273.415H740.97L736.869 276.679H734.104ZM752.283 278.061C753.25 278.061 754.111 278.257 754.866 278.65C755.637 279.028 756.241 279.617 756.679 280.418C757.117 281.203 757.336 282.216 757.336 283.454V290.434H753.801V283.998C753.801 283.016 753.582 282.291 753.144 281.823C752.721 281.354 752.117 281.12 751.331 281.12C750.772 281.12 750.266 281.241 749.813 281.483C749.375 281.709 749.027 282.064 748.77 282.548C748.529 283.031 748.408 283.651 748.408 284.406V290.434H744.872V278.242H748.249V281.619L747.615 280.599C748.053 279.783 748.68 279.156 749.495 278.718C750.311 278.28 751.24 278.061 752.283 278.061ZM772.193 290.615C771.045 290.615 770.01 290.359 769.089 289.845C768.167 289.316 767.434 288.583 766.891 287.647C766.362 286.71 766.097 285.607 766.097 284.338C766.097 283.054 766.362 281.944 766.891 281.007C767.434 280.07 768.167 279.345 769.089 278.831C770.01 278.318 771.045 278.061 772.193 278.061C773.221 278.061 774.12 278.288 774.89 278.741C775.661 279.194 776.257 279.881 776.68 280.803C777.103 281.725 777.315 282.903 777.315 284.338C777.315 285.758 777.111 286.937 776.703 287.873C776.295 288.795 775.706 289.482 774.935 289.936C774.18 290.389 773.266 290.615 772.193 290.615ZM772.805 287.715C773.379 287.715 773.901 287.579 774.369 287.307C774.837 287.035 775.207 286.65 775.479 286.151C775.766 285.637 775.91 285.033 775.91 284.338C775.91 283.628 775.766 283.024 775.479 282.525C775.207 282.027 774.837 281.641 774.369 281.369C773.901 281.098 773.379 280.962 772.805 280.962C772.216 280.962 771.687 281.098 771.219 281.369C770.751 281.641 770.373 282.027 770.086 282.525C769.814 283.024 769.678 283.628 769.678 284.338C769.678 285.033 769.814 285.637 770.086 286.151C770.373 286.65 770.751 287.035 771.219 287.307C771.687 287.579 772.216 287.715 772.805 287.715ZM776.001 290.434V287.941L776.069 284.315L775.842 280.712V273.619H779.377V290.434H776.001ZM788.7 290.615C787.31 290.615 786.086 290.343 785.028 289.8C783.986 289.256 783.178 288.515 782.604 287.579C782.03 286.627 781.743 285.547 781.743 284.338C781.743 283.114 782.022 282.034 782.581 281.098C783.155 280.146 783.933 279.405 784.915 278.877C785.897 278.333 787.008 278.061 788.246 278.061C789.44 278.061 790.513 278.318 791.464 278.831C792.431 279.33 793.194 280.055 793.753 281.007C794.312 281.944 794.592 283.069 794.592 284.383C794.592 284.519 794.584 284.678 794.569 284.859C794.554 285.026 794.539 285.184 794.524 285.335H784.621V283.273H792.665L791.306 283.885C791.306 283.25 791.177 282.699 790.92 282.231C790.664 281.762 790.309 281.4 789.855 281.143C789.402 280.871 788.873 280.735 788.269 280.735C787.665 280.735 787.128 280.871 786.66 281.143C786.207 281.4 785.852 281.77 785.595 282.253C785.338 282.722 785.21 283.281 785.21 283.93V284.474C785.21 285.139 785.353 285.728 785.64 286.242C785.942 286.74 786.358 287.126 786.887 287.397C787.431 287.654 788.065 287.783 788.79 287.783C789.44 287.783 790.006 287.684 790.49 287.488C790.988 287.292 791.442 286.997 791.85 286.604L793.73 288.644C793.172 289.278 792.469 289.769 791.623 290.117C790.777 290.449 789.802 290.615 788.7 290.615ZM811.204 290.706C809.98 290.706 808.84 290.51 807.782 290.117C806.74 289.709 805.833 289.135 805.063 288.395C804.292 287.654 803.688 286.786 803.25 285.788C802.827 284.791 802.615 283.696 802.615 282.503C802.615 281.309 802.827 280.214 803.25 279.217C803.688 278.22 804.292 277.351 805.063 276.611C805.848 275.87 806.762 275.304 807.805 274.911C808.847 274.503 809.988 274.299 811.227 274.299C812.601 274.299 813.84 274.541 814.943 275.024C816.061 275.493 816.998 276.188 817.753 277.109L815.396 279.285C814.852 278.665 814.248 278.204 813.583 277.902C812.919 277.585 812.193 277.426 811.408 277.426C810.668 277.426 809.988 277.547 809.368 277.789C808.749 278.031 808.213 278.378 807.759 278.831C807.306 279.285 806.951 279.821 806.694 280.44C806.453 281.06 806.332 281.747 806.332 282.503C806.332 283.258 806.453 283.945 806.694 284.565C806.951 285.184 807.306 285.72 807.759 286.174C808.213 286.627 808.749 286.974 809.368 287.216C809.988 287.458 810.668 287.579 811.408 287.579C812.193 287.579 812.919 287.428 813.583 287.126C814.248 286.808 814.852 286.332 815.396 285.698L817.753 287.873C816.998 288.795 816.061 289.497 814.943 289.981C813.84 290.464 812.594 290.706 811.204 290.706ZM824.839 290.615C823.827 290.615 822.921 290.419 822.12 290.026C821.334 289.633 820.723 289.037 820.284 288.236C819.846 287.42 819.627 286.385 819.627 285.131V278.242H823.162V284.61C823.162 285.622 823.374 286.37 823.797 286.854C824.235 287.322 824.847 287.556 825.633 287.556C826.176 287.556 826.66 287.443 827.083 287.216C827.506 286.974 827.838 286.612 828.08 286.128C828.322 285.63 828.443 285.01 828.443 284.27V278.242H831.978V290.434H828.624V287.08L829.236 288.055C828.828 288.901 828.224 289.543 827.423 289.981C826.637 290.404 825.776 290.615 824.839 290.615ZM836.794 295.012C836.159 295.012 835.532 294.914 834.913 294.717C834.294 294.521 833.787 294.249 833.395 293.901L834.686 291.386C834.958 291.628 835.268 291.816 835.616 291.952C835.978 292.088 836.333 292.156 836.681 292.156C837.179 292.156 837.572 292.035 837.859 291.794C838.161 291.567 838.433 291.182 838.675 290.638L839.309 289.142L839.581 288.757L843.955 278.242H847.354L841.847 291.182C841.455 292.164 841.001 292.934 840.488 293.493C839.989 294.052 839.43 294.445 838.811 294.672C838.206 294.898 837.534 295.012 836.794 295.012ZM838.879 290.91L833.44 278.242H837.089L841.304 288.44L838.879 290.91ZM854.266 290.615C852.967 290.615 851.811 290.343 850.799 289.8C849.802 289.256 849.009 288.515 848.419 287.579C847.845 286.627 847.558 285.547 847.558 284.338C847.558 283.114 847.845 282.034 848.419 281.098C849.009 280.146 849.802 279.405 850.799 278.877C851.811 278.333 852.967 278.061 854.266 278.061C855.55 278.061 856.698 278.333 857.711 278.877C858.723 279.405 859.516 280.138 860.09 281.075C860.664 282.012 860.951 283.099 860.951 284.338C860.951 285.547 860.664 286.627 860.09 287.579C859.516 288.515 858.723 289.256 857.711 289.8C856.698 290.343 855.55 290.615 854.266 290.615ZM854.266 287.715C854.855 287.715 855.384 287.579 855.852 287.307C856.321 287.035 856.691 286.65 856.963 286.151C857.235 285.637 857.371 285.033 857.371 284.338C857.371 283.628 857.235 283.024 856.963 282.525C856.691 282.027 856.321 281.641 855.852 281.369C855.384 281.098 854.855 280.962 854.266 280.962C853.677 280.962 853.148 281.098 852.68 281.369C852.211 281.641 851.834 282.027 851.547 282.525C851.275 283.024 851.139 283.628 851.139 284.338C851.139 285.033 851.275 285.637 851.547 286.151C851.834 286.65 852.211 287.035 852.68 287.307C853.148 287.579 853.677 287.715 854.266 287.715Z" fill="#301D19"/>
<path d="M757.463 249.433C756.615 249.433 755.826 249.296 755.094 249.02C754.374 248.734 753.743 248.336 753.202 247.828C752.672 247.308 752.259 246.699 751.962 245.999C751.665 245.299 751.517 244.536 751.517 243.709C751.517 242.883 751.665 242.119 751.962 241.42C752.259 240.72 752.678 240.116 753.218 239.607C753.759 239.088 754.389 238.69 755.11 238.415C755.831 238.129 756.621 237.985 757.479 237.985C758.391 237.985 759.223 238.144 759.976 238.462C760.728 238.77 761.364 239.231 761.884 239.846L760.548 241.102C760.145 240.667 759.695 240.344 759.197 240.132C758.698 239.909 758.158 239.798 757.575 239.798C756.992 239.798 756.456 239.893 755.969 240.084C755.492 240.275 755.073 240.545 754.713 240.895C754.363 241.245 754.087 241.658 753.886 242.135C753.695 242.612 753.6 243.137 753.6 243.709C753.6 244.282 753.695 244.807 753.886 245.284C754.087 245.761 754.363 246.174 754.713 246.524C755.073 246.874 755.492 247.144 755.969 247.335C756.456 247.525 756.992 247.621 757.575 247.621C758.158 247.621 758.698 247.515 759.197 247.303C759.695 247.08 760.145 246.746 760.548 246.301L761.884 247.573C761.364 248.177 760.728 248.638 759.976 248.956C759.223 249.274 758.386 249.433 757.463 249.433ZM768.491 240.688C769.169 240.688 769.774 240.821 770.304 241.086C770.844 241.351 771.268 241.759 771.576 242.31C771.883 242.851 772.037 243.55 772.037 244.409V249.274H770.049V244.663C770.049 243.911 769.869 243.349 769.509 242.978C769.159 242.607 768.666 242.422 768.03 242.422C767.564 242.422 767.15 242.517 766.79 242.708C766.429 242.899 766.148 243.185 765.947 243.566C765.756 243.937 765.661 244.409 765.661 244.981V249.274H763.673V237.477H765.661V243.073L765.232 242.374C765.528 241.833 765.958 241.42 766.519 241.134C767.092 240.837 767.749 240.688 768.491 240.688ZM779.789 249.274V247.557L779.678 247.192V244.186C779.678 243.603 779.503 243.153 779.153 242.835C778.803 242.506 778.273 242.342 777.563 242.342C777.086 242.342 776.614 242.416 776.148 242.565C775.692 242.713 775.305 242.92 774.987 243.185L774.208 241.738C774.664 241.388 775.205 241.128 775.83 240.959C776.466 240.779 777.123 240.688 777.802 240.688C779.031 240.688 779.98 240.985 780.648 241.579C781.326 242.162 781.665 243.068 781.665 244.298V249.274H779.789ZM777.118 249.386C776.482 249.386 775.925 249.28 775.448 249.068C774.971 248.845 774.6 248.543 774.335 248.161C774.081 247.769 773.954 247.329 773.954 246.842C773.954 246.365 774.065 245.935 774.288 245.554C774.521 245.172 774.897 244.87 775.417 244.648C775.936 244.425 776.625 244.314 777.484 244.314H779.948V245.633H777.627C776.948 245.633 776.492 245.745 776.259 245.967C776.026 246.179 775.909 246.444 775.909 246.762C775.909 247.123 776.053 247.409 776.339 247.621C776.625 247.833 777.022 247.939 777.531 247.939C778.019 247.939 778.453 247.828 778.835 247.605C779.227 247.382 779.508 247.054 779.678 246.619L780.012 247.812C779.821 248.31 779.476 248.697 778.978 248.972C778.491 249.248 777.87 249.386 777.118 249.386ZM788.127 249.386C787.236 249.386 786.441 249.2 785.742 248.829C785.053 248.448 784.512 247.928 784.12 247.271C783.728 246.614 783.532 245.867 783.532 245.029C783.532 244.181 783.728 243.434 784.12 242.787C784.512 242.13 785.053 241.616 785.742 241.245C786.441 240.874 787.236 240.688 788.127 240.688C788.954 240.688 789.68 240.858 790.305 241.197C790.941 241.526 791.423 242.013 791.752 242.66L790.226 243.55C789.971 243.148 789.659 242.851 789.288 242.66C788.927 242.469 788.535 242.374 788.111 242.374C787.623 242.374 787.183 242.48 786.791 242.692C786.399 242.904 786.092 243.211 785.869 243.614C785.647 244.006 785.535 244.478 785.535 245.029C785.535 245.58 785.647 246.057 785.869 246.46C786.092 246.852 786.399 247.154 786.791 247.366C787.183 247.578 787.623 247.684 788.111 247.684C788.535 247.684 788.927 247.589 789.288 247.398C789.659 247.207 789.971 246.911 790.226 246.508L791.752 247.398C791.423 248.034 790.941 248.527 790.305 248.877C789.68 249.216 788.954 249.386 788.127 249.386ZM793.47 249.274V240.784H795.362V243.121L795.14 242.437C795.394 241.865 795.792 241.43 796.332 241.134C796.883 240.837 797.567 240.688 798.383 240.688V242.581C798.298 242.559 798.219 242.549 798.145 242.549C798.07 242.538 797.996 242.533 797.922 242.533C797.169 242.533 796.571 242.755 796.125 243.201C795.68 243.635 795.458 244.287 795.458 245.156V249.274H793.47ZM804.695 249.274V247.557L804.583 247.192V244.186C804.583 243.603 804.409 243.153 804.059 242.835C803.709 242.506 803.179 242.342 802.469 242.342C801.992 242.342 801.52 242.416 801.054 242.565C800.598 242.713 800.211 242.92 799.893 243.185L799.114 241.738C799.57 241.388 800.11 241.128 800.736 240.959C801.372 240.779 802.029 240.688 802.707 240.688C803.937 240.688 804.886 240.985 805.553 241.579C806.232 242.162 806.571 243.068 806.571 244.298V249.274H804.695ZM802.024 249.386C801.388 249.386 800.831 249.28 800.354 249.068C799.877 248.845 799.506 248.543 799.241 248.161C798.987 247.769 798.859 247.329 798.859 246.842C798.859 246.365 798.971 245.935 799.193 245.554C799.427 245.172 799.803 244.87 800.322 244.648C800.842 244.425 801.531 244.314 802.389 244.314H804.854V245.633H802.532C801.854 245.633 801.398 245.745 801.165 245.967C800.932 246.179 800.815 246.444 800.815 246.762C800.815 247.123 800.958 247.409 801.244 247.621C801.531 247.833 801.928 247.939 802.437 247.939C802.925 247.939 803.359 247.828 803.741 247.605C804.133 247.382 804.414 247.054 804.583 246.619L804.917 247.812C804.727 248.31 804.382 248.697 803.884 248.972C803.396 249.248 802.776 249.386 802.024 249.386ZM811.745 249.386C811.035 249.386 810.351 249.296 809.694 249.115C809.047 248.925 808.533 248.697 808.152 248.432L808.915 246.921C809.296 247.165 809.752 247.366 810.282 247.525C810.812 247.684 811.342 247.764 811.872 247.764C812.498 247.764 812.948 247.679 813.224 247.51C813.51 247.34 813.653 247.112 813.653 246.826C813.653 246.593 813.558 246.418 813.367 246.301C813.176 246.174 812.927 246.079 812.62 246.015C812.312 245.951 811.968 245.893 811.586 245.84C811.215 245.787 810.839 245.718 810.457 245.633C810.086 245.538 809.747 245.405 809.44 245.236C809.132 245.056 808.883 244.817 808.692 244.52C808.501 244.224 808.406 243.831 808.406 243.344C808.406 242.803 808.56 242.337 808.867 241.945C809.175 241.542 809.604 241.234 810.155 241.022C810.717 240.8 811.379 240.688 812.143 240.688C812.715 240.688 813.293 240.752 813.876 240.879C814.459 241.006 814.941 241.187 815.323 241.42L814.559 242.93C814.157 242.687 813.748 242.522 813.335 242.437C812.932 242.342 812.529 242.294 812.127 242.294C811.522 242.294 811.072 242.384 810.775 242.565C810.489 242.745 810.346 242.973 810.346 243.248C810.346 243.503 810.441 243.694 810.632 243.821C810.823 243.948 811.072 244.049 811.379 244.123C811.687 244.197 812.026 244.261 812.397 244.314C812.779 244.356 813.155 244.425 813.526 244.52C813.897 244.616 814.236 244.748 814.543 244.918C814.861 245.077 815.116 245.305 815.307 245.602C815.497 245.898 815.593 246.285 815.593 246.762C815.593 247.292 815.434 247.753 815.116 248.146C814.808 248.538 814.369 248.845 813.796 249.068C813.224 249.28 812.54 249.386 811.745 249.386ZM825.292 249.386C824.476 249.386 823.739 249.206 823.082 248.845C822.435 248.474 821.927 247.965 821.556 247.319C821.185 246.672 820.999 245.909 820.999 245.029C820.999 244.149 821.185 243.386 821.556 242.74C821.927 242.093 822.435 241.589 823.082 241.229C823.739 240.869 824.476 240.688 825.292 240.688C826.002 240.688 826.638 240.847 827.2 241.165C827.762 241.473 828.207 241.945 828.536 242.581C828.864 243.217 829.029 244.033 829.029 245.029C829.029 246.015 828.87 246.831 828.552 247.478C828.234 248.114 827.794 248.591 827.232 248.909C826.67 249.227 826.023 249.386 825.292 249.386ZM825.531 247.684C826.008 247.684 826.432 247.578 826.803 247.366C827.184 247.154 827.486 246.847 827.709 246.444C827.942 246.041 828.059 245.57 828.059 245.029C828.059 244.478 827.942 244.006 827.709 243.614C827.486 243.211 827.184 242.904 826.803 242.692C826.432 242.48 826.008 242.374 825.531 242.374C825.054 242.374 824.624 242.48 824.243 242.692C823.872 242.904 823.57 243.211 823.336 243.614C823.114 244.006 823.002 244.478 823.002 245.029C823.002 245.57 823.114 246.041 823.336 246.444C823.57 246.847 823.872 247.154 824.243 247.366C824.624 247.578 825.054 247.684 825.531 247.684ZM828.106 249.274V247.271L828.186 245.013L828.027 242.755V237.477H829.998V249.274H828.106ZM836.605 249.386C835.662 249.386 834.835 249.2 834.125 248.829C833.425 248.448 832.879 247.928 832.487 247.271C832.106 246.614 831.915 245.867 831.915 245.029C831.915 244.181 832.1 243.434 832.471 242.787C832.853 242.13 833.372 241.616 834.029 241.245C834.697 240.874 835.455 240.688 836.303 240.688C837.13 240.688 837.867 240.869 838.513 241.229C839.16 241.589 839.669 242.098 840.04 242.755C840.411 243.413 840.596 244.186 840.596 245.077C840.596 245.162 840.591 245.257 840.58 245.363C840.58 245.469 840.575 245.57 840.564 245.665H833.489V244.345H839.515L838.736 244.759C838.746 244.271 838.646 243.842 838.434 243.471C838.222 243.1 837.93 242.808 837.559 242.596C837.199 242.384 836.78 242.278 836.303 242.278C835.815 242.278 835.386 242.384 835.015 242.596C834.655 242.808 834.369 243.105 834.157 243.487C833.955 243.858 833.855 244.298 833.855 244.807V245.125C833.855 245.633 833.971 246.084 834.204 246.476C834.437 246.868 834.766 247.17 835.19 247.382C835.614 247.594 836.102 247.7 836.653 247.7C837.13 247.7 837.559 247.626 837.941 247.478C838.322 247.329 838.662 247.096 838.958 246.778L840.024 248.002C839.642 248.448 839.16 248.792 838.577 249.036C838.004 249.269 837.347 249.386 836.605 249.386ZM852.242 249.433C851.394 249.433 850.604 249.296 849.873 249.02C849.152 248.734 848.521 248.336 847.981 247.828C847.451 247.308 847.037 246.699 846.74 245.999C846.444 245.299 846.295 244.536 846.295 243.709C846.295 242.883 846.444 242.119 846.74 241.42C847.037 240.72 847.456 240.116 847.996 239.607C848.537 239.088 849.168 238.69 849.889 238.415C850.609 238.129 851.399 237.985 852.258 237.985C853.169 237.985 854.001 238.144 854.754 238.462C855.507 238.77 856.143 239.231 856.662 239.846L855.326 241.102C854.924 240.667 854.473 240.344 853.975 240.132C853.477 239.909 852.936 239.798 852.353 239.798C851.77 239.798 851.235 239.893 850.747 240.084C850.27 240.275 849.851 240.545 849.491 240.895C849.141 241.245 848.866 241.658 848.664 242.135C848.473 242.612 848.378 243.137 848.378 243.709C848.378 244.282 848.473 244.807 848.664 245.284C848.866 245.761 849.141 246.174 849.491 246.524C849.851 246.874 850.27 247.144 850.747 247.335C851.235 247.525 851.77 247.621 852.353 247.621C852.936 247.621 853.477 247.515 853.975 247.303C854.473 247.08 854.924 246.746 855.326 246.301L856.662 247.573C856.143 248.177 855.507 248.638 854.754 248.956C854.001 249.274 853.164 249.433 852.242 249.433ZM861.942 249.386C861.072 249.386 860.299 249.2 859.62 248.829C858.942 248.448 858.406 247.928 858.014 247.271C857.622 246.614 857.426 245.867 857.426 245.029C857.426 244.181 857.622 243.434 858.014 242.787C858.406 242.13 858.942 241.616 859.62 241.245C860.299 240.874 861.072 240.688 861.942 240.688C862.821 240.688 863.6 240.874 864.279 241.245C864.968 241.616 865.503 242.125 865.885 242.771C866.277 243.418 866.473 244.171 866.473 245.029C866.473 245.867 866.277 246.614 865.885 247.271C865.503 247.928 864.968 248.448 864.279 248.829C863.6 249.2 862.821 249.386 861.942 249.386ZM861.942 247.684C862.429 247.684 862.864 247.578 863.245 247.366C863.627 247.154 863.924 246.847 864.136 246.444C864.358 246.041 864.47 245.57 864.47 245.029C864.47 244.478 864.358 244.006 864.136 243.614C863.924 243.211 863.627 242.904 863.245 242.692C862.864 242.48 862.434 242.374 861.957 242.374C861.47 242.374 861.035 242.48 860.654 242.692C860.283 242.904 859.986 243.211 859.763 243.614C859.541 244.006 859.429 244.478 859.429 245.029C859.429 245.57 859.541 246.041 859.763 246.444C859.986 246.847 860.283 247.154 860.654 247.366C861.035 247.578 861.465 247.684 861.942 247.684ZM868.374 249.274V240.784H870.266V243.121L870.043 242.437C870.297 241.865 870.695 241.43 871.236 241.134C871.787 240.837 872.47 240.688 873.287 240.688V242.581C873.202 242.559 873.122 242.549 873.048 242.549C872.974 242.538 872.9 242.533 872.826 242.533C872.073 242.533 871.474 242.755 871.029 243.201C870.584 243.635 870.361 244.287 870.361 245.156V249.274H868.374ZM874.973 249.274V240.784H876.96V249.274H874.973ZM875.974 239.385C875.603 239.385 875.296 239.268 875.052 239.035C874.819 238.802 874.702 238.521 874.702 238.192C874.702 237.853 874.819 237.572 875.052 237.349C875.296 237.116 875.603 237 875.974 237C876.345 237 876.647 237.111 876.881 237.334C877.124 237.546 877.246 237.816 877.246 238.144C877.246 238.494 877.13 238.791 876.897 239.035C876.663 239.268 876.356 239.385 875.974 239.385ZM884.8 249.274V247.557L884.688 247.192V244.186C884.688 243.603 884.514 243.153 884.164 242.835C883.814 242.506 883.284 242.342 882.574 242.342C882.097 242.342 881.625 242.416 881.159 242.565C880.703 242.713 880.316 242.92 879.998 243.185L879.219 241.738C879.675 241.388 880.215 241.128 880.841 240.959C881.477 240.779 882.134 240.688 882.812 240.688C884.042 240.688 884.991 240.985 885.658 241.579C886.337 242.162 886.676 243.068 886.676 244.298V249.274H884.8ZM882.129 249.386C881.493 249.386 880.936 249.28 880.459 249.068C879.982 248.845 879.611 248.543 879.346 248.161C879.092 247.769 878.964 247.329 878.964 246.842C878.964 246.365 879.076 245.935 879.298 245.554C879.532 245.172 879.908 244.87 880.427 244.648C880.947 244.425 881.636 244.314 882.494 244.314H884.959V245.633H882.637C881.959 245.633 881.503 245.745 881.27 245.967C881.037 246.179 880.92 246.444 880.92 246.762C880.92 247.123 881.063 247.409 881.349 247.621C881.636 247.833 882.033 247.939 882.542 247.939C883.03 247.939 883.464 247.828 883.846 247.605C884.238 247.382 884.519 247.054 884.688 246.619L885.022 247.812C884.832 248.31 884.487 248.697 883.989 248.972C883.501 249.248 882.881 249.386 882.129 249.386Z" fill="#301D19"/>
<path d="M1031.33 349.443V338.313H1033.4V347.694H1039.22V349.443H1031.33ZM1044.17 349.555C1043.45 349.555 1042.82 349.422 1042.27 349.157C1041.72 348.882 1041.29 348.468 1040.98 347.917C1040.67 347.355 1040.52 346.65 1040.52 345.802V340.953H1042.51V345.532C1042.51 346.295 1042.67 346.868 1043.01 347.249C1043.36 347.62 1043.86 347.806 1044.49 347.806C1044.96 347.806 1045.36 347.71 1045.7 347.519C1046.05 347.329 1046.32 347.042 1046.51 346.661C1046.71 346.279 1046.81 345.808 1046.81 345.246V340.953H1048.8V349.443H1046.91V347.154L1047.24 347.853C1046.96 348.405 1046.54 348.829 1045.99 349.125C1045.44 349.412 1044.83 349.555 1044.17 349.555ZM1056.22 340.857C1056.9 340.857 1057.5 340.99 1058.03 341.255C1058.57 341.52 1059 341.928 1059.31 342.479C1059.61 343.02 1059.77 343.719 1059.77 344.578V349.443H1057.78V344.832C1057.78 344.08 1057.6 343.518 1057.24 343.147C1056.89 342.776 1056.4 342.591 1055.76 342.591C1055.29 342.591 1054.88 342.686 1054.52 342.877C1054.16 343.067 1053.88 343.354 1053.68 343.735C1053.49 344.106 1053.39 344.578 1053.39 345.15V349.443H1051.4V340.953H1053.3V343.242L1052.96 342.543C1053.26 342.002 1053.69 341.589 1054.25 341.303C1054.82 341.006 1055.48 340.857 1056.22 340.857ZM1062.29 349.443V337.646H1064.28V349.443H1062.29ZM1070.48 349.555C1069.76 349.555 1069.12 349.422 1068.57 349.157C1068.02 348.882 1067.59 348.468 1067.28 347.917C1066.97 347.355 1066.82 346.65 1066.82 345.802V340.953H1068.81V345.532C1068.81 346.295 1068.98 346.868 1069.32 347.249C1069.67 347.62 1070.16 347.806 1070.8 347.806C1071.26 347.806 1071.67 347.71 1072 347.519C1072.35 347.329 1072.62 347.042 1072.82 346.661C1073.02 346.279 1073.12 345.808 1073.12 345.246V340.953H1075.1V349.443H1073.21V347.154L1073.55 347.853C1073.26 348.405 1072.84 348.829 1072.29 349.125C1071.74 349.412 1071.14 349.555 1070.48 349.555ZM1082.52 340.857C1083.2 340.857 1083.81 340.99 1084.34 341.255C1084.88 341.52 1085.3 341.928 1085.61 342.479C1085.92 343.02 1086.07 343.719 1086.07 344.578V349.443H1084.08V344.832C1084.08 344.08 1083.9 343.518 1083.54 343.147C1083.19 342.776 1082.7 342.591 1082.06 342.591C1081.6 342.591 1081.18 342.686 1080.82 342.877C1080.46 343.067 1080.18 343.354 1079.98 343.735C1079.79 344.106 1079.69 344.578 1079.69 345.15V349.443H1077.71V340.953H1079.6V343.242L1079.27 342.543C1079.56 342.002 1079.99 341.589 1080.55 341.303C1081.13 341.006 1081.78 340.857 1082.52 340.857ZM1091.79 349.555C1090.85 349.555 1090.13 349.316 1089.63 348.839C1089.12 348.352 1088.86 347.636 1088.86 346.693V339.077H1090.85V346.645C1090.85 347.048 1090.95 347.36 1091.15 347.583C1091.36 347.806 1091.65 347.917 1092.03 347.917C1092.47 347.917 1092.84 347.8 1093.14 347.567L1093.7 348.982C1093.46 349.173 1093.18 349.316 1092.84 349.412C1092.5 349.507 1092.15 349.555 1091.79 349.555ZM1087.46 342.606V341.016H1093.12V342.606H1087.46ZM1100.56 349.443V347.726L1100.45 347.36V344.355C1100.45 343.772 1100.28 343.322 1099.93 343.004C1099.58 342.675 1099.05 342.511 1098.34 342.511C1097.86 342.511 1097.39 342.585 1096.92 342.734C1096.46 342.882 1096.08 343.089 1095.76 343.354L1094.98 341.907C1095.44 341.557 1095.98 341.297 1096.6 341.128C1097.24 340.948 1097.9 340.857 1098.57 340.857C1099.8 340.857 1100.75 341.154 1101.42 341.748C1102.1 342.331 1102.44 343.237 1102.44 344.467V349.443H1100.56ZM1097.89 349.555C1097.25 349.555 1096.7 349.449 1096.22 349.237C1095.74 349.014 1095.37 348.712 1095.11 348.33C1094.85 347.938 1094.73 347.498 1094.73 347.011C1094.73 346.534 1094.84 346.104 1095.06 345.723C1095.29 345.341 1095.67 345.039 1096.19 344.816C1096.71 344.594 1097.4 344.483 1098.26 344.483H1100.72V345.802H1098.4C1097.72 345.802 1097.26 345.914 1097.03 346.136C1096.8 346.348 1096.68 346.613 1096.68 346.931C1096.68 347.292 1096.82 347.578 1097.11 347.79C1097.4 348.002 1097.79 348.108 1098.3 348.108C1098.79 348.108 1099.23 347.996 1099.61 347.774C1100 347.551 1100.28 347.223 1100.45 346.788L1100.78 347.981C1100.59 348.479 1100.25 348.866 1099.75 349.141C1099.26 349.417 1098.64 349.555 1097.89 349.555Z" fill="#301D19"/>
<path d="M912.006 349.443V338.313H916.585C917.571 338.313 918.414 338.472 919.114 338.79C919.824 339.108 920.37 339.564 920.751 340.158C921.133 340.751 921.324 341.456 921.324 342.273C921.324 343.089 921.133 343.794 920.751 344.387C920.37 344.981 919.824 345.437 919.114 345.755C918.414 346.073 917.571 346.232 916.585 346.232H913.151L914.073 345.262V349.443H912.006ZM914.073 345.484L913.151 344.483H916.49C917.402 344.483 918.085 344.292 918.541 343.91C919.008 343.518 919.241 342.972 919.241 342.273C919.241 341.562 919.008 341.016 918.541 340.635C918.085 340.253 917.402 340.062 916.49 340.062H913.151L914.073 339.045V345.484ZM927.157 349.555C926.213 349.555 925.387 349.369 924.676 348.998C923.977 348.617 923.431 348.097 923.039 347.44C922.657 346.783 922.466 346.035 922.466 345.198C922.466 344.35 922.652 343.603 923.023 342.956C923.404 342.299 923.924 341.785 924.581 341.414C925.249 341.043 926.007 340.857 926.855 340.857C927.681 340.857 928.418 341.038 929.065 341.398C929.711 341.758 930.22 342.267 930.591 342.924C930.962 343.582 931.148 344.355 931.148 345.246C931.148 345.331 931.142 345.426 931.132 345.532C931.132 345.638 931.126 345.739 931.116 345.834H924.04V344.514H930.066L929.287 344.928C929.298 344.44 929.197 344.011 928.985 343.64C928.773 343.269 928.482 342.977 928.111 342.765C927.75 342.553 927.332 342.447 926.855 342.447C926.367 342.447 925.938 342.553 925.567 342.765C925.206 342.977 924.92 343.274 924.708 343.656C924.507 344.027 924.406 344.467 924.406 344.975V345.293C924.406 345.802 924.523 346.253 924.756 346.645C924.989 347.037 925.318 347.339 925.742 347.551C926.166 347.763 926.653 347.869 927.205 347.869C927.681 347.869 928.111 347.795 928.492 347.647C928.874 347.498 929.213 347.265 929.51 346.947L930.575 348.171C930.194 348.617 929.711 348.961 929.128 349.205C928.556 349.438 927.899 349.555 927.157 349.555ZM933.057 349.443V340.953H934.949V343.29L934.726 342.606C934.981 342.034 935.378 341.599 935.919 341.303C936.47 341.006 937.154 340.857 937.97 340.857V342.75C937.885 342.728 937.806 342.718 937.731 342.718C937.657 342.707 937.583 342.702 937.509 342.702C936.756 342.702 936.157 342.924 935.712 343.37C935.267 343.804 935.044 344.456 935.044 345.325V349.443H933.057ZM943.172 349.555C942.355 349.555 941.619 349.374 940.962 349.014C940.315 348.643 939.806 348.134 939.435 347.488C939.064 346.841 938.879 346.078 938.879 345.198C938.879 344.318 939.064 343.555 939.435 342.909C939.806 342.262 940.315 341.758 940.962 341.398C941.619 341.038 942.355 340.857 943.172 340.857C943.882 340.857 944.518 341.016 945.08 341.334C945.641 341.642 946.087 342.114 946.415 342.75C946.744 343.385 946.908 344.202 946.908 345.198C946.908 346.184 946.749 347 946.431 347.647C946.113 348.283 945.673 348.76 945.111 349.078C944.55 349.396 943.903 349.555 943.172 349.555ZM943.41 347.853C943.887 347.853 944.311 347.747 944.682 347.535C945.064 347.323 945.366 347.016 945.588 346.613C945.822 346.21 945.938 345.739 945.938 345.198C945.938 344.647 945.822 344.175 945.588 343.783C945.366 343.38 945.064 343.073 944.682 342.861C944.311 342.649 943.887 342.543 943.41 342.543C942.933 342.543 942.504 342.649 942.122 342.861C941.751 343.073 941.449 343.38 941.216 343.783C940.993 344.175 940.882 344.647 940.882 345.198C940.882 345.739 940.993 346.21 941.216 346.613C941.449 347.016 941.751 347.323 942.122 347.535C942.504 347.747 942.933 347.853 943.41 347.853ZM945.986 349.443V347.44L946.065 345.182L945.906 342.924V337.646H947.878V349.443H945.986ZM950.494 349.443V340.953H952.386V343.29L952.163 342.606C952.418 342.034 952.815 341.599 953.356 341.303C953.907 341.006 954.591 340.857 955.407 340.857V342.75C955.322 342.728 955.243 342.718 955.168 342.718C955.094 342.707 955.02 342.702 954.946 342.702C954.193 342.702 953.594 342.924 953.149 343.37C952.704 343.804 952.481 344.456 952.481 345.325V349.443H950.494ZM957.093 349.443V340.953H959.08V349.443H957.093ZM958.095 339.554C957.724 339.554 957.416 339.437 957.172 339.204C956.939 338.971 956.823 338.69 956.823 338.361C956.823 338.022 956.939 337.741 957.172 337.518C957.416 337.285 957.724 337.169 958.095 337.169C958.466 337.169 958.768 337.28 959.001 337.503C959.245 337.715 959.367 337.985 959.367 338.313C959.367 338.663 959.25 338.96 959.017 339.204C958.784 339.437 958.476 339.554 958.095 339.554ZM965.68 349.555C964.737 349.555 963.91 349.369 963.2 348.998C962.5 348.617 961.954 348.097 961.562 347.44C961.18 346.783 960.989 346.035 960.989 345.198C960.989 344.35 961.175 343.603 961.546 342.956C961.928 342.299 962.447 341.785 963.104 341.414C963.772 341.043 964.53 340.857 965.378 340.857C966.205 340.857 966.941 341.038 967.588 341.398C968.234 341.758 968.743 342.267 969.114 342.924C969.485 343.582 969.671 344.355 969.671 345.246C969.671 345.331 969.665 345.426 969.655 345.532C969.655 345.638 969.65 345.739 969.639 345.834H962.564V344.514H968.59L967.81 344.928C967.821 344.44 967.72 344.011 967.508 343.64C967.296 343.269 967.005 342.977 966.634 342.765C966.273 342.553 965.855 342.447 965.378 342.447C964.89 342.447 964.461 342.553 964.09 342.765C963.73 342.977 963.443 343.274 963.231 343.656C963.03 344.027 962.929 344.467 962.929 344.975V345.293C962.929 345.802 963.046 346.253 963.279 346.645C963.512 347.037 963.841 347.339 964.265 347.551C964.689 347.763 965.176 347.869 965.728 347.869C966.205 347.869 966.634 347.795 967.015 347.647C967.397 347.498 967.736 347.265 968.033 346.947L969.098 348.171C968.717 348.617 968.234 348.961 967.651 349.205C967.079 349.438 966.422 349.555 965.68 349.555ZM971.58 349.443V337.646H973.567V349.443H971.58Z" fill="#301D19"/>
<path d="M899.302 389.193L904.311 378.063H906.346L911.37 389.193H909.208L904.899 379.161H905.726L901.433 389.193H899.302ZM901.608 386.618L902.164 384.996H908.174L908.731 386.618H901.608ZM916.365 392.389C915.581 392.389 914.812 392.283 914.06 392.071C913.318 391.87 912.708 391.573 912.231 391.181L913.122 389.686C913.493 389.994 913.959 390.237 914.521 390.418C915.093 390.608 915.671 390.704 916.254 390.704C917.187 390.704 917.87 390.487 918.305 390.052C918.74 389.628 918.957 388.987 918.957 388.128V386.618L919.116 384.694L919.052 382.77V380.703H920.944V387.905C920.944 389.442 920.552 390.571 919.768 391.292C918.983 392.024 917.849 392.389 916.365 392.389ZM916.111 388.812C915.305 388.812 914.574 388.642 913.917 388.303C913.27 387.953 912.756 387.471 912.374 386.856C912.003 386.241 911.818 385.52 911.818 384.694C911.818 383.877 912.003 383.162 912.374 382.547C912.756 381.932 913.27 381.455 913.917 381.116C914.574 380.777 915.305 380.607 916.111 380.607C916.832 380.607 917.478 380.751 918.051 381.037C918.623 381.323 919.079 381.768 919.418 382.372C919.768 382.976 919.943 383.75 919.943 384.694C919.943 385.637 919.768 386.416 919.418 387.031C919.079 387.635 918.623 388.086 918.051 388.382C917.478 388.669 916.832 388.812 916.111 388.812ZM916.413 387.126C916.911 387.126 917.356 387.026 917.748 386.824C918.141 386.612 918.443 386.326 918.655 385.966C918.877 385.595 918.989 385.171 918.989 384.694C918.989 384.217 918.877 383.798 918.655 383.438C918.443 383.067 918.141 382.786 917.748 382.595C917.356 382.394 916.911 382.293 916.413 382.293C915.915 382.293 915.464 382.394 915.061 382.595C914.669 382.786 914.362 383.067 914.139 383.438C913.927 383.798 913.821 384.217 913.821 384.694C913.821 385.171 913.927 385.595 914.139 385.966C914.362 386.326 914.669 386.612 915.061 386.824C915.464 387.026 915.915 387.126 916.413 387.126ZM923.557 389.193V380.703H925.449V383.04L925.227 382.356C925.481 381.784 925.879 381.349 926.419 381.053C926.97 380.756 927.654 380.607 928.47 380.607V382.5C928.386 382.478 928.306 382.468 928.232 382.468C928.158 382.457 928.083 382.452 928.009 382.452C927.257 382.452 926.658 382.674 926.213 383.12C925.767 383.554 925.545 384.206 925.545 385.075V389.193H923.557ZM934.07 389.305C933.126 389.305 932.299 389.119 931.589 388.748C930.89 388.367 930.344 387.847 929.952 387.19C929.57 386.533 929.379 385.785 929.379 384.948C929.379 384.1 929.565 383.353 929.936 382.706C930.317 382.049 930.837 381.535 931.494 381.164C932.162 380.793 932.919 380.607 933.767 380.607C934.594 380.607 935.331 380.788 935.978 381.148C936.624 381.508 937.133 382.017 937.504 382.674C937.875 383.332 938.06 384.105 938.06 384.996C938.06 385.081 938.055 385.176 938.045 385.282C938.045 385.388 938.039 385.489 938.029 385.584H930.953V384.264H936.979L936.2 384.678C936.211 384.19 936.11 383.761 935.898 383.39C935.686 383.019 935.395 382.727 935.024 382.515C934.663 382.303 934.244 382.197 933.767 382.197C933.28 382.197 932.851 382.303 932.48 382.515C932.119 382.727 931.833 383.024 931.621 383.406C931.42 383.777 931.319 384.217 931.319 384.725V385.043C931.319 385.552 931.435 386.003 931.669 386.395C931.902 386.787 932.23 387.089 932.654 387.301C933.078 387.513 933.566 387.619 934.117 387.619C934.594 387.619 935.024 387.545 935.405 387.397C935.787 387.248 936.126 387.015 936.423 386.697L937.488 387.921C937.106 388.367 936.624 388.711 936.041 388.955C935.469 389.188 934.812 389.305 934.07 389.305ZM939.97 389.193V377.396H941.957V389.193H939.97ZM948.382 389.305C947.512 389.305 946.739 389.119 946.06 388.748C945.382 388.367 944.847 387.847 944.454 387.19C944.062 386.533 943.866 385.785 943.866 384.948C943.866 384.1 944.062 383.353 944.454 382.706C944.847 382.049 945.382 381.535 946.06 381.164C946.739 380.793 947.512 380.607 948.382 380.607C949.261 380.607 950.04 380.793 950.719 381.164C951.408 381.535 951.943 382.044 952.325 382.69C952.717 383.337 952.913 384.089 952.913 384.948C952.913 385.785 952.717 386.533 952.325 387.19C951.943 387.847 951.408 388.367 950.719 388.748C950.04 389.119 949.261 389.305 948.382 389.305ZM948.382 387.603C948.869 387.603 949.304 387.497 949.685 387.285C950.067 387.073 950.364 386.766 950.576 386.363C950.798 385.96 950.91 385.489 950.91 384.948C950.91 384.397 950.798 383.925 950.576 383.533C950.364 383.13 950.067 382.823 949.685 382.611C949.304 382.399 948.874 382.293 948.397 382.293C947.91 382.293 947.475 382.399 947.094 382.611C946.723 382.823 946.426 383.13 946.203 383.533C945.981 383.925 945.869 384.397 945.869 384.948C945.869 385.489 945.981 385.96 946.203 386.363C946.426 386.766 946.723 387.073 947.094 387.285C947.475 387.497 947.905 387.603 948.382 387.603Z" fill="#301D19"/>
<rect width="855" height="600" fill="url(#paint0_linear_493_321)"/>
</g>
<defs>
<linearGradient id="paint0_linear_493_321" x1="5.77258e-10" y1="285.5" x2="854.997" y2="288.297" gradientUnits="userSpaceOnUse">
<stop offset="0.64" stop-color="#F8F8F8" stop-opacity="0.7"/>
<stop offset="1" stop-color="#F8F8F8" stop-opacity="0"/>
</linearGradient>
<clipPath id="clip0_493_321">
<rect width="1440" height="600" fill="white"/>
</clipPath>
</defs>
</svg>
