<svg width="17" height="17" viewBox="0 0 17 17" fill="none" xmlns="http://www.w3.org/2000/svg">
<g clip-path="url(#clip0_470_321)">
<path d="M2.36274 5.96661C2.36288 5.32665 2.52844 4.6976 2.84336 4.14048C3.15828 3.58337 3.61186 3.11713 4.16009 2.787C4.70832 2.45687 5.33259 2.27406 5.9723 2.25631C6.61201 2.23856 7.24545 2.38649 7.81114 2.68572C8.37683 2.98495 8.85556 3.42533 9.20088 3.96413C9.5462 4.50292 9.74638 5.12183 9.78199 5.7608C9.8176 6.39976 9.68744 7.03709 9.40413 7.61092C9.12082 8.18475 8.69398 8.6756 8.16504 9.03583C9.30411 9.45362 10.2921 10.2027 11.0018 11.1867C11.7116 12.1707 12.1106 13.3446 12.1475 14.5573C12.146 14.6881 12.0939 14.8132 12.0023 14.9065C11.9107 14.9997 11.7866 15.054 11.6559 15.0579C11.5252 15.0619 11.398 15.0151 11.3009 14.9275C11.2039 14.8399 11.1444 14.7181 11.135 14.5877C11.0948 13.2724 10.5441 12.0245 9.59953 11.1084C8.65496 10.1922 7.39079 9.67985 6.07491 9.67985C4.75903 9.67985 3.49485 10.1922 2.55028 11.1084C1.6057 12.0245 1.05497 13.2724 1.01477 14.5877C1.00801 14.7199 0.949751 14.8442 0.852472 14.9339C0.755192 15.0237 0.626629 15.0718 0.494326 15.0679C0.362023 15.064 0.236502 15.0085 0.144655 14.9132C0.0528068 14.8179 0.0019375 14.6904 0.00294435 14.558C0.0397665 13.3452 0.438729 12.1711 1.14848 11.187C1.85823 10.2029 2.84628 9.45366 3.98544 9.03583C3.48515 8.69539 3.07574 8.23773 2.7929 7.70276C2.51006 7.16779 2.36239 6.57175 2.36274 5.96661ZM6.07524 3.26661C5.35916 3.26661 4.6724 3.55107 4.16606 4.05742C3.65971 4.56377 3.37524 5.25052 3.37524 5.96661C3.37524 6.68269 3.65971 7.36945 4.16606 7.8758C4.6724 8.38215 5.35916 8.66661 6.07524 8.66661C6.79133 8.66661 7.47808 8.38215 7.98443 7.8758C8.49078 7.36945 8.77524 6.68269 8.77524 5.96661C8.77524 5.25052 8.49078 4.56377 7.98443 4.05742C7.47808 3.55107 6.79133 3.26661 6.07524 3.26661ZM11.671 5.96661C11.5711 5.96661 11.4739 5.97336 11.378 5.98686C11.3111 5.99884 11.2425 5.99722 11.1762 5.9821C11.1099 5.96697 11.0474 5.93866 10.9923 5.89883C10.9372 5.859 10.8906 5.80849 10.8555 5.7503C10.8203 5.69211 10.7973 5.62743 10.7877 5.56013C10.778 5.49283 10.7821 5.42428 10.7995 5.35857C10.817 5.29287 10.8475 5.23135 10.8892 5.17769C10.931 5.12403 10.9831 5.07933 11.0425 5.04625C11.1019 5.01317 11.1673 4.99239 11.2349 4.98516C11.9063 4.8881 12.5908 5.01702 13.1809 5.35163C13.7709 5.68625 14.2329 6.20756 14.4943 6.83353C14.7556 7.4595 14.8013 8.15458 14.6243 8.8094C14.4473 9.46421 14.0575 10.0416 13.5164 10.4506C14.3119 10.8068 14.9872 11.3855 15.461 12.117C15.9349 12.8484 16.1869 13.7013 16.1867 14.5729C16.1867 14.7071 16.1334 14.8359 16.0385 14.9308C15.9435 15.0258 15.8148 15.0791 15.6805 15.0791C15.5462 15.0791 15.4175 15.0258 15.3225 14.9308C15.2276 14.8359 15.1742 14.7071 15.1742 14.5729C15.1742 13.8197 14.9315 13.0865 14.4821 12.482C14.0328 11.8776 13.4007 11.4339 12.6794 11.2168L12.319 11.1088V9.97746L12.5957 9.83638C13.006 9.62858 13.3342 9.28859 13.5275 8.8713C13.7207 8.45401 13.7677 7.98377 13.6608 7.5365C13.5539 7.08923 13.2994 6.69103 12.9384 6.40619C12.5773 6.12135 12.1309 5.96649 11.671 5.96661Z" fill="#301D19"/>
</g>
<defs>
<clipPath id="clip0_470_321">
<rect width="16.2" height="16.2" fill="white" transform="translate(0 0.56665)"/>
</clipPath>
</defs>
</svg>
