<svg width="15" height="16" viewBox="0 0 15 16" fill="none" xmlns="http://www.w3.org/2000/svg">
<path d="M12.9205 10.0266L12.9205 10.0266L12.924 10.0281C13.0568 10.0864 13.1673 10.186 13.2392 10.312C13.3107 10.4373 13.3401 10.5822 13.3232 10.7255C13.2268 11.4546 12.8686 12.1238 12.3153 12.6083C11.7613 13.0935 11.0497 13.3605 10.3133 13.3594H10.3125C5.80681 13.3594 2.14063 9.69318 2.14063 5.18749L2.14063 5.18671C2.13949 4.4503 2.40645 3.73866 2.89164 3.18469C3.37623 2.63141 4.04542 2.2732 4.77449 2.17675C4.91776 2.15989 5.06269 2.18933 5.18804 2.26081C5.31404 2.33267 5.41356 2.44318 5.47187 2.57599L5.47186 2.576L5.47327 2.57915L6.70554 5.33394C6.70844 5.34092 6.71147 5.34784 6.71463 5.35469C6.75557 5.45419 6.77204 5.5621 6.76258 5.66937C6.75285 5.77974 6.71598 5.88598 6.65525 5.97865L6.65436 5.98001C6.65005 5.98663 6.64536 5.99299 6.64032 5.99907C6.6402 5.99921 6.64009 5.99934 6.63997 5.99948L5.5242 7.32599L5.30353 7.58834L5.4687 7.88875C5.92898 8.72585 6.78559 9.57491 7.63079 10.0333L7.93225 10.1967L8.19333 9.9744L9.49862 8.86277C9.50548 8.85709 9.51262 8.85176 9.52002 8.84681L9.52048 8.84651C9.61327 8.78428 9.72018 8.7463 9.83144 8.73606C9.94188 8.72589 10.0531 8.74336 10.1551 8.78689L10.1613 8.78964L10.1628 8.79029L12.9205 10.0266Z" stroke="#301D19"/>
</svg>
