<svg width="25" height="26" viewBox="0 0 25 26" fill="none" xmlns="http://www.w3.org/2000/svg">
<path d="M17.4194 15.146C17.1533 15.0093 15.8276 14.3599 15.5811 14.272C15.3345 14.1792 15.1538 14.1353 14.9756 14.4087C14.7949 14.6797 14.2822 15.2827 14.1211 15.4658C13.9648 15.6465 13.8062 15.6685 13.54 15.5342C11.958 14.7432 10.9204 14.123 9.87793 12.3335C9.60205 11.8574 10.1538 11.8916 10.6689 10.8638C10.7568 10.6831 10.7129 10.5293 10.6445 10.3926C10.5762 10.2559 10.0391 8.93262 9.81445 8.39307C9.59717 7.86816 9.37256 7.94141 9.20898 7.93164C9.05273 7.92187 8.87451 7.92188 8.69385 7.92188C8.51318 7.92188 8.22266 7.99023 7.97607 8.25635C7.72949 8.52734 7.03369 9.1792 7.03369 10.5024C7.03369 11.8257 7.99805 13.1074 8.12988 13.2881C8.2666 13.4688 10.0269 16.1836 12.7295 17.353C14.4385 18.0903 15.1074 18.1538 15.9619 18.0269C16.4819 17.9487 17.5537 17.3774 17.7759 16.7451C17.998 16.1152 17.998 15.5757 17.9321 15.4634C17.8662 15.3438 17.6855 15.2754 17.4194 15.146Z" fill="#F4EEB8"/>
<path d="M22.588 8.76172C22.0363 7.45068 21.2453 6.27393 20.237 5.26318C19.2287 4.25488 18.0519 3.46143 16.7384 2.91211C15.3956 2.34814 13.9699 2.0625 12.5001 2.0625H12.4513C10.9718 2.06982 9.53871 2.36279 8.19106 2.93896C6.88979 3.49561 5.7228 4.28662 4.72426 5.29492C3.72572 6.30322 2.94203 7.4751 2.40004 8.78125C1.83852 10.1338 1.55531 11.5718 1.56264 13.0513C1.56996 14.7456 1.97524 16.4277 2.73451 17.9316V21.6426C2.73451 22.2627 3.23744 22.7656 3.85756 22.7656H7.57094C9.07485 23.5249 10.757 23.9302 12.4513 23.9375H12.5026C13.965 23.9375 15.3834 23.6543 16.7189 23.1001C18.025 22.5557 19.1994 21.7744 20.2052 20.7759C21.2135 19.7773 22.007 18.6104 22.5612 17.3091C23.1373 15.9614 23.4303 14.5283 23.4376 13.0488C23.445 11.562 23.1569 10.1191 22.588 8.76172ZM18.8991 19.4551C17.1876 21.1494 14.9171 22.082 12.5001 22.082H12.4586C10.9865 22.0747 9.52406 21.7085 8.23256 21.02L8.02748 20.9102H4.58998V17.4727L4.48012 17.2676C3.79164 15.9761 3.42543 14.5137 3.41811 13.0415C3.40834 10.6074 4.33852 8.32227 6.04506 6.60107C7.74916 4.87988 10.027 3.92773 12.4611 3.91797H12.5026C13.7233 3.91797 14.9074 4.15478 16.0231 4.62353C17.112 5.08008 18.0885 5.73682 18.9284 6.57666C19.7658 7.41406 20.4249 8.39307 20.8815 9.48193C21.3551 10.6099 21.5919 11.8062 21.5871 13.0415C21.5724 15.4731 20.6178 17.751 18.8991 19.4551Z" fill="#F4EEB8"/>
</svg>
